/* XPM */
static char * D1_xpm[] = {
"30 85 77 1",
" 	c None",
".	c #927FAA",
"+	c #808422",
"@	c #32293D",
"#	c #695B7A",
"$	c #020103",
"%	c #453953",
"&	c #544961",
"*	c #191320",
"=	c #6E922F",
"-	c #9FDB6D",
";	c #72B839",
">	c #56751F",
",	c #414723",
"'	c #90B056",
")	c #050308",
"!	c #05040A",
"~	c #06040A",
"{	c #07050C",
"]	c #08050E",
"^	c #39304A",
"/	c #0D0A1A",
"(	c #3C3350",
"_	c #3D3452",
":	c #110E22",
"<	c #25203A",
"[	c #26203A",
"}	c #262039",
"|	c #110D21",
"1	c #3C3351",
"2	c #3B324F",
"3	c #0D0A18",
"4	c #382F49",
"5	c #5D5476",
"6	c #60577C",
"7	c #453C63",
"8	c #463E68",
"9	c #322C53",
"0	c #463F69",
"a	c #463F68",
"b	c #453E67",
"c	c #453D66",
"d	c #2F2A4F",
"e	c #443B62",
"f	c #42395E",
"g	c #5E5577",
"h	c #5D5373",
"i	c #655B84",
"j	c #68608D",
"k	c #4F487D",
"l	c #514A83",
"m	c #3F3B74",
"n	c #534C85",
"o	c #524B84",
"p	c #514A82",
"q	c #514A81",
"r	c #50497F",
"s	c #4E477B",
"t	c #3A3567",
"u	c #4C4576",
"v	c #49426F",
"w	c #635A83",
"x	c #60577D",
"y	c #4F50A7",
"z	c #7B7FB6",
"A	c #6C6FB1",
"B	c #5D5FAC",
"C	c #B8C2D1",
"D	c #A9B1CA",
"E	c #99A0C3",
"F	c #8A90BC",
"G	c #3F3EA2",
"H	c #3E3FA2",
"I	c #3E3FA1",
"J	c #3F3FA1",
"K	c #3F3FA2",
"L	c #3F40A1",
"                              ",
"            .++++.            ",
"          ....++....          ",
"        @@@#......#@@@        ",
"       $$$$%#....#%$$$$       ",
"     &&&&@@$#...#%$@@&&&&     ",
"       $$$@$******$@$$$       ",
"    &@@@*$$$@$$$$@$$$*@@@&    ",
"   &@@@@@*$@$$==$$@$*@@@@@&   ",
"   @@*****$@$=-;=$@$*****@@   ",
"      $$$$$@$>;->$@$$$$$      ",
"   @@@****$@$$>>$$@$****@@@   ",
"     $$$$$$$*$$$$@$$$$$$$     ",
"   @@@****$***@@@@*$****@@@   ",
"   *******$........$*******   ",
"   $ $$$$$$$#.....$$$$$$$ $   ",
"   $ $$$**$$##...@$$**$$$ $   ",
"   $ $$$$$$$$###@$$$$$$$$ $   ",
"   $ $$$$@$,$$**$$,$@$$$$ $   ",
"   ,'''','$,$$$$$$,$','''',   ",
"   ,====,=$,$*$$*$,$=,====,   ",
"   $ $$$$*$,$****$=$*$$$$ $   ",
"   $ $$$$$$=$*$$*$=$$$$$$ $   ",
"   ,'--','$=$*$$*$=$','--',   ",
"   ,====,=$=$*$$*$'$=,====,   ",
"   $ $$$$$$=$*$$@$'$$$$$$ $   ",
"   $ $$$$$$=$***@$'$$$$$$ $   ",
"   ,-''','$=$*$$@$'$','''',   ",
"   ,====,=$=$@$$@$'$=,====,   ",
"   $ $$$$$$=$@$$*$'$$$$$$ $   ",
"   $ $$$$$$=$@$$@$'$$$$$$ $   ",
"   ,'---,'$=$@**@$'$',''-',   ",
"   ,====,=$=$@$$@$'$=,====,   ",
"   $ $$$$$$=$@$$@$'$$$$$$ $   ",
"   $ $$$$$$=$@$$@$'$$$$$$ $   ",
"   ,'--','$=$@$$@$'$',''--,   ",
"   ,====,=$=$@**@$=$=,====,   ",
"   $ $$$$$$=$@$$@$=$$$$$$ $   ",
"   $ $$$$$$=$@$$@$=$$$$$$ $   ",
"   ,'-'','$=$@$$@$=$','--',   ",
"   ,====,=$=$@$$@$'$=,====,   ",
"   $ $$$$$$=$@@*@$'$$$$$$ $   ",
"   $ $$$$$$=$@$$@$'$$$$$$ $   ",
"   ,''--,'$=$@$$@$'$','''-,   ",
"   ,====,=$=$@$$@$'$=,====,   ",
"   $ $$$$$$=$@$$@$'$$$$$$ $   ",
"   $ $$$$$$=$@*@@$'$$$$$$ $   ",
"   ,'''','$=$@$$@$'$','--',   ",
"   ,====,=$=$@$$*$'$=,====,   ",
"   $ $$$$$$=$*$$*$'$$$$$$ $   ",
"   $ $$$$$$=$@$$*$'$$$$$$ $   ",
"   ,---','$=$@@**$'$','--',   ",
"   ,====,=$=$@$$*$=$=,====,   ",
"   $ $$$$$$=$@$$*$=$$$$$$ $   ",
"   $ $$$$$$=$@$$@$=$$$$$$ $   ",
"   ,''-','$=$*$$@$=$',''--,   ",
"   ,====,=$=$**@@$=$=,====,   ",
"   $ $$$$$$=$*$$@$=$$$$$$ $   ",
"   $ $$$$$$=$*$$@$=$$$$$$ $   ",
"   ,'--','$=$@$$*$=$',--'',   ",
"   ,====,=$=$@$$*$=$=,====,   ",
"   $ $$$$$$,$@***$=$$$$$$ $   ",
"   $ $$$$$$,$@$$*$,$$$$$$ $   ",
"   ,'''','$,$@$$*$,$','''',   ",
"   ,====,=$,$*$$*$,$=,====,   ",
"     $$$$$$,$*$$*$,$$$$$$     ",
"      )!~{]]]$$$$]]]{~!)      ",
"       ^/(_:<<::[}|1234       ",
"       56789000abcdefgh       ",
"       ijklmnopqrstuvwx       ",
"       yzzzzzzzzzzzABAy       ",
"       zCCCCCCCCDEDFGAA       ",
"       zCCDEDDEEAHAAGIy       ",
"       AEDFJzAJBKGIyK K       ",
"       yLFzJyJKKLKJK  K       ",
"       KJABKKGKK   K  K       ",
"         KJIK                 ",
"            K K               ",
"                  K           ",
"                              ",
"         K                    ",
"                              ",
"                              ",
"                              ",
"                              "};
