/* XPM */
static char * scientist_xpm[] = {
"13 21 10 1",
" 	c None",
".	c #EEC39A",
"+	c #45283C",
"@	c #D9A066",
"#	c #000000",
"$	c #FFFFFF",
"%	c #808080",
"&	c #D1D0E2",
"*	c #847E87",
"=	c #8F563B",
"     ...     ",
"  ++@@@..++  ",
" +++##@@##++ ",
" +##$$##$$#+ ",
" +.#$$##$$#  ",
"  ++##..##   ",
"   +@@##@@   ",
"  %&$@...&%  ",
"  %%&$**$%   ",
" %$$&$&&$$%  ",
" %$&$&&&&$$% ",
"%.$&$$$&$&$.%",
"%..%$$$&$%..%",
" %%%&&$&$%%% ",
"   %$$$&$%   ",
"   %$$$&$%   ",
"   +++++++   ",
"  +==+++==+  ",
"  ++++ ++++  ",
"             ",
"             "};
