/* XPM */
static char * waechter3_xpm[] = {
"82 83 50 1",
" 	c None",
".	c #0A0000",
"+	c #343C40",
"@	c #556269",
"#	c #3B4348",
"$	c #4A565C",
"%	c #40494E",
"&	c #2A3033",
"*	c #1E2325",
"=	c #2F373A",
"-	c #606F76",
";	c #A19494",
">	c #F2F2F2",
",	c #5E2828",
"'	c #8B7E71",
")	c #1B0000",
"!	c #743E3E",
"~	c #C99494",
"{	c #BCAEAE",
"]	c #9F9388",
"^	c #A4A4A4",
"/	c #A1A1A1",
"(	c #6B3636",
"_	c #D7AEAE",
":	c #C9A1A1",
"<	c #D7D7D7",
"[	c #515151",
"}	c #BCBCBC",
"|	c #AEAEAE",
"1	c #5E3636",
"2	c #7C7C7C",
"3	c #949494",
"4	c #797979",
"5	c #360000",
"6	c #290000",
"7	c #43000D",
"8	c #300000",
"9	c #430000",
"0	c #51000D",
"a	c #868686",
"b	c #979797",
"c	c #898989",
"d	c #847874",
"e	c #976E6E",
"f	c #150000",
"g	c #EAE7E7",
"h	c #B1B1B1",
"i	c #916666",
"j	c #6B6B6B",
"k	c #C9C9C9",
"                                                                                  ",
"                                                                                  ",
"                                                                                  ",
"                                                                                  ",
"                                                                                  ",
"                                                                                  ",
"                                                ..                                ",
"            .....                              .++.                               ",
"         ...@@@@@...                           .#+.                               ",
"       ..@@$$$$$$@@@..                         .%#+.                              ",
"      .$@$$%%%%%$$$$@@.                        .%#+.                              ",
"     .$@$%%++++++%%$$$@.                       .$%#+.                             ",
"    .$@%%+++...&&+%%$$$@.                      .$%#+.                             ",
"   .$@%++...   .*&+%%$$@.                      .$%#+.                             ",
"   .@%+..       .*&+%%$$@.                     .$%#+.                             ",
"   .%..          .*&+%%$$@.                   .%$@%+.                             ",
"    .             .*&+%%$@.                   .%$@%+&.                            ",
"                  .*&+%%$$@.                  .%$@%+&.                            ",
"                  .*&&+%%$@.                  .%$@%+&.                            ",
"                   .*&+%%$@.                  .$@$%+&.                            ",
"                   .*&++%$$@.                .%@$%#+&.                            ",
"                   .*&&+%%$@.                .%@$%#+&.                            ",
"                   .**&++%$@.                .%$%#+&.                             ",
"                    .*&&+%$$@.              .#@$%#+&.                             ",
"                    .**&+%%$@.              .%@$#+&*.                             ",
"                    .**&++%$@.       ..... .#@$%#+&.                              ",
"                    .**&&++%$@. .....&&&&&.#%$%#+&*.                              ",
"                     .**&&++%$..+++++++++..#$%#+=&*.                              ",
"                     .***&&++.++########..+%$%#+&*.                               ",
"                     .****&&.+##%%%%%###.+#$%#+=&*.                               ",
"                     .****..+#%%%%%%%%#..#%$%+=&**..                              ",
"                      .**.++#%%%%%%%%%#.+%$%#+=&*.**.                             ",
"                      .*.$$$$###%%%%%#..+%$#+=&**.**.           ...               ",
"                      ..--@$&+###%%%##.+#$%#+=&***.**.       ...***....           ",
"                      .*****%&+#######%#%%##=&&****&*.    ...**********...        ",
"                      .;;>,'*%&+######%#%)#)=&&**&&&&*....*******&&&&&&&&&..      ",
"                     .!~){!]'*&+#####%%#)^)/)&&*&&&=..******&&&&&&+++++++++&.     ",
"                     .(~_:(]'&*+####)%)#<[}|)&&*&*..*****&&&&&++++%%%%%%%%%++.    ",
"                     .'1(1]'&*&+###)/)^)^[}[|)&&******&&&&&&+++%%%...........     ",
"                     .&''''&*&####%)|}[<2)3)[4)==&&&&&&&&&+++%%...                ",
"                     .******&####%)|[}[^)5)6)3)+==&&&&&&&+++%..                   ",
"                     .&&&&&&##%%%)4[)3)2)6556)4)+==&&&&&++%..                     ",
"                     .&&++++##%%%)3)6)5)78556)4)++=&&&&++..                       ",
"                      .&+++##%%%)4)6556909566)a)++=&&&+%.                         ",
"                      .&+#####%#)4)6558778556)4)+==&&+%.                          ",
"                      .&&+++###+)a)6659078)56)4)==&&&%..                          ",
"                      .******+++)4)655870)a)6)4)=&&&+.*.                          ",
"                      .&+&&&&**+)4)655870)})))a)&&&+.**.                          ",
"                      .+%@%++&+&)a))6)90)[})a)a)&&&.***.                          ",
"                      .%*****&+&)a)a)a))a[<[bc[)&&*****.                          ",
"                       .defgd*&&)[cb[}[a}[<[h|)&&&****.                           ",
"                       .dieid*&++)|h[<[}3)j)k)&&&*****.                           ",
"                       ..****&++++)k)<[3)+.+)&&&&****.                            ",
"                       .&..*&&&++++))j))+++++&&&****.                             ",
"                      .&&+%.&&&&+++++.++++++&&&&***.                              ",
"                      .&++%%.&&&&+++++&&&&+&&&&***.                               ",
"                     .&&+%%$%.&&&&&+&&***&&&&&***.                                ",
"                     .&++%$$@..&&&&&&*&&&&*&&**..                                 ",
"                    .&&+%$$@.  ..*&&&&&++&&***.                                   ",
"                    .&++%$@.     ..&*&++++&&*.                                    ",
"                    .&++%$@.       .&&++%+&&*.                                    ",
"                    .&++%$@.        .&+%$%&&*.                                    ",
"                    .&&+%$@.        .&+%$%&**.                                    ",
"                     .&++%$@.       .&+%$%&*.                                     ",
"                     .&&++%$$.      .&+%$%&*.                                     ",
"                      .&&&+%%%..    .&+%%+&*.                                     ",
"                       ..&&++++&.   .+%$%+&*.                                     ",
"                         ..&&&&.   .+%$%+&*.                                      ",
"                           ....    .%$%+&**.                                      ",
"                                  .%$%+&**.                                       ",
"                                  .%$+&**.                                        ",
"                                 .%$+&**.                                         ",
"                                 .%$+&*.                                          ",
"                                 .%+&*.                                           ",
"                                .+%+**.                                           ",
"                                .%+&*.                                            ",
"                                .%+&*.                                            ",
"                                 .&&*.                                            ",
"                                 .&*.                                             ",
"                                  .*.                                             ",
"                                  .*.                                             ",
"                                   ..                                             ",
"                                                                                  "};
