/* XPM */
static char * waechter2_xpm[] = {
"76 84 49 1",
" 	c None",
".	c #0A0000",
"+	c #40494E",
"@	c #343C40",
"#	c #556269",
"$	c #4A565C",
"%	c #2A3033",
"&	c #1E2325",
"*	c #3B4348",
"=	c #2F373A",
"-	c #606F76",
";	c #A19494",
">	c #F2F2F2",
",	c #5E2828",
"'	c #8B7E71",
")	c #743E3E",
"!	c #C99494",
"~	c #1B0000",
"{	c #BCAEAE",
"]	c #9F9388",
"^	c #6B3636",
"/	c #D7AEAE",
"(	c #C9A1A1",
"_	c #A4A4A4",
":	c #5E3636",
"<	c #D7D7D7",
"[	c #515151",
"}	c #BCBCBC",
"|	c #A1A1A1",
"1	c #AEAEAE",
"2	c #7C7C7C",
"3	c #949494",
"4	c #360000",
"5	c #797979",
"6	c #290000",
"7	c #430000",
"8	c #51000D",
"9	c #868686",
"0	c #979797",
"a	c #898989",
"b	c #B1B1B1",
"c	c #847874",
"d	c #976E6E",
"e	c #140000",
"f	c #EAE7E7",
"g	c #6B6B6B",
"h	c #C9C9C9",
"i	c #916666",
"j	c #B4AAA0",
"                                                                            ",
"                                                                            ",
"                                                                            ",
"                                                                            ",
"                                                                            ",
"                                                                            ",
"                                                                            ",
"                                                                            ",
"                                       ...                                  ",
"        ......                         .+@.                                 ",
"      ..######..                       .@+@.                                ",
"     .##$$$$$$##.                       .@+@.                               ",
"    .#$$++++++$$#.                      .%@+@.                              ",
"   .#$++%%%%%+$$$#.                      .%@+@.                             ",
"  .#$++%&&&&&%+$$$#.                     .%%@+@.                            ",
"  .#$+%.....&&%+$$#.                      .%@+*@.                           ",
"  .$+%.    ..&&%+$$#.                     .%%@+@.                           ",
"  .$%.       .&%@+$#.                      .%@+@%.                          ",
"  .+%.       ..&%@+$#.                     .%@+@%.                          ",
"  .%.         .&%@+$#.                     .%@+@%.                          ",
"   ..         .&%@+$$#.                    .@$+@%.                          ",
"              .&%@++$#.                   .%@$+@%.                          ",
"              .&%@++$##.                  .%#+@=%.                          ",
"               .&%@++$#.                 .%@#+@%&.                          ",
"               .&%@++$##.                .@$+@=%&.                          ",
"               .&%@+++$#.               .%+$@=%&&.                          ",
"               .&%%@++$##.       ..... .%+$+@%%&.                           ",
"                .&%@@++$#.  .....%%%%%.%+$+@=%&&.                           ",
"                .&%%@@++$@..@@@@@@@@@.%@+$@=%%&.                            ",
"                .&&%%@@@@.@@********..@+$+@=%&&.                            ",
"                 .&&%%%%.@**+++++***.@*+$@=%%&.                             ",
"                 .&&&&..@*++++++++*..*+*@@=%&&..                            ",
"                  .&..@@*+++++++++*.@*++*@=%&.&&.                           ",
"                  ..%%%+$***+++++*..@*+*@=%&&.&&.                           ",
"                   .##$%@$+**+++**.@*++*@=%&&&.&&.        ......            ",
"                   .--#$%@********+****@=%%&&&&%&.    ....&&&&&&..          ",
"                  .&&&&&+%@@*****++***@@=%%&&%%%%&....&&&&&&&&&&&&..        ",
"                  .;;>,'&+%@****+++***@@=%%&%%%=..&&&&&&&%%%%%%%%%&&.       ",
"                 .)!~{)]'&%@***++++**~@@@=%%%&..&&&&&&%%%%@@@@@@@%%%&.      ",
"                 .^!/(^]'%&@**++++**~_~~@@==%%&&&&&%%%%%@@@++++++@@%%%.     ",
"                 .':^:]'%&%**+++~*~~<[}|~@@@=%%%%%%%%%@@@++......++@@%.     ",
"                 .%''''%&%**+++~|~_<_[}1~@@@==%%%%%%%@@@+..      ..++@%.    ",
"                 .&&&&&&%**++++~1}[_2~3[1~@@@==%%%%%@@++.          ..+@.    ",
"                 .%%%%%%**++++~1[}[2~4~~[5~@@@=%%%%@@+..             .+.    ",
"                  .%@@@**+++*~5[~3~2~4~~~3~@@@=%%%@++.                .     ",
"                  .%@*****+*@~3~6~4~76~6~~5~@==%%@+..                       ",
"                  .%%@@@***@~5~~4~678~94~~5~==%%%+..                        ",
"                  .&&&&&&@@@~5~~4~68~[}~~~9~=%%%@.&.                        ",
"                  .%@%%%%&&@~5~~4~68~[}~9~9~%%%@.&&.                        ",
"                  .@+#+@@%@%~9~9~9~~9[<[0a[~%%%.&&&.                        ",
"                  .+&&&&&%@%~[a0[}[9}[<[b1~%%%&&&&&.                        ",
"                   .cdefc&%%@~1b[<[}3~g~h~%%%%&&&&.                         ",
"                   .cidic&%@@@~h~<[3~@.@~%%%%&&&&&.                         ",
"                    .jjc&%@@@@@~~g~~@@@@@%%%%&&&&.                          ",
"                   .%..&%%%@@@@@@.@@@@@@%%%%&&&&.                           ",
"                  .%%%+.%%%%@@@@@@@@@@@%%%%%&&&.                            ",
"                  .%%@@+.%%%%@@@@@%%%%@%%%%&&&.                             ",
"                 .%%@@+$+.%%%%%@%%&&&%%%%%&&&.                              ",
"                .%%@@+$#. .%%%%%%&%%%%&%%&&..                               ",
"                .%@@+$#.   ..&%%%%%%%%%&&&.                                 ",
"                .%@@+$.      ..%&%%@@%%&&.                                  ",
"                .%@@+$.       ..%%@@+@%&&.                                  ",
"                .%@@+$.        ..%@+$+%&..                                  ",
"                .%%@@+$.  ..    .&@+$+%&..                                  ",
"                 .%%@@+$..@.    ..@+$+%&.                                   ",
"                  .%%@@@@@%.     .@+$+%&.                                   ",
"                   .%%%%%%.      .@$+@%&.                                   ",
"                    ......      .@$+@%&&.                                   ",
"                               .@$+@@%&.                                    ",
"                              .@$+@@%&&.                                    ",
"                             .+$+@@%&&.                                     ",
"                            .$$+@@%&&.                                      ",
"                           .$++@%%&&.                                       ",
"                          .$+@@%&&..                                        ",
"                          .+@@%&..                                          ",
"                         .$+@%&.                                            ",
"                         .$+@%.                                             ",
"                         .$+@.                                              ",
"                         .$+@.                                              ",
"                          .+@.                                              ",
"                          .$+.                                              ",
"                           .$.                                              ",
"                            .                                               ",
"                                                                            "};
