/* XPM */
static char * waechter5_xpm[] = {
"74 73 61 1",
" 	c None",
".	c #0A0000",
"+	c #343C40",
"@	c #2F373A",
"#	c #40494E",
"$	c #455056",
"%	c #4A565C",
"&	c #3B4348",
"*	c #2A3033",
"=	c #1E2325",
"-	c #606F76",
";	c #556269",
">	c #0D1B1B",
",	c #8B7E71",
"'	c #5E2828",
")	c #D7AEAE",
"!	c #A19494",
"~	c #F2F2F2",
"{	c #9F9388",
"]	c #743E3E",
"^	c #C9AEAE",
"/	c #1B0000",
"(	c #BCAEAE",
"_	c #C99494",
":	c #C9A1A1",
"<	c #6B3636",
"[	c #D7D7D7",
"}	c #5E3636",
"|	c #AEAEAE",
"1	c #A1A1A1",
"2	c #A4A4A4",
"3	c #515151",
"4	c #BCBCBC",
"5	c #43000D",
"6	c #6E6E6E",
"7	c #797979",
"8	c #949494",
"9	c #7C7C7C",
"0	c #51000D",
"a	c #290000",
"b	c #360000",
"c	c #430000",
"d	c #510D0D",
"e	c #510D1B",
"f	c #868686",
"g	c #300000",
"h	c #5E5E5E",
"i	c #898989",
"j	c #979797",
"k	c #847874",
"l	c #B4AAA0",
"m	c #926E6E",
"n	c #150000",
"o	c #EAE7E7",
"p	c #B1B1B1",
"q	c #916161",
"r	c #976E6E",
"s	c #916666",
"t	c #C9C9C9",
"u	c #6B6B6B",
"v	c #242A2C",
"                                              ......                      ",
"                                            ..+++@@@..                    ",
"                                           .++####++@@.                   ",
"                                          .+##..++##++@.                  ",
"        ........                           ...  ..+##++@.                 ",
"      ..#$$$%%%%..                                .+##+@.                 ",
"     .&&&###$$$%%$..                               .+##+@.                ",
"    .++++&&&###$%%$&.                              .*+#+@.                ",
"   .++++++++&&&#$%%$&.                              .*#+@*.               ",
"  .++++*****+++&#$%%$&.                             .*#+@*.               ",
" .++++*.....**++&#$%$#&.                            .*#+@*.               ",
" .+++*.     ..*++&#$%$#&.                          .*++@*=.               ",
".+++*.        .*++&#$%$#+.                         .*++@*=.               ",
".++*.          .*++&#$-$#+.                       .*++@*==.               ",
".++*.           .**+&#$$#&+.                     .*+#%@*==.               ",
".+*.             .*+&#$-$#&+.                   .*+#%@*==.                ",
".+*.              .*+&#$-$&+*.       ...      ..*+#;+@*==.                ",
".+*.              .*++&#$-%#+*..  ...===.>  ..**+#;+@*==.                 ",
".*.                .*+&&#$-#&+**..******==..=**+#%+@*===.                 ",
" .                 .*++&&#$%#&+++++++*****==.=+##+@*===.                  ",
"                    .*+&&#$%##&&&&&++++*****=.=#+@*===.                   ",
"                    .*++&+&########&&++++****=..@*===.                    ",
"                    .*++++&###%%%%%##&+++++***==.===.                     ",
"                     .**++&##%#####%##&+++++***==.=.                      ",
"                     ..*+&##%#*****#%##&+++++***=..                       ",
"                     ..*+&#%#*%;;;%*+%#&++++++***=.                       ",
"                     .*++&##*%;---;%*+&&+++++++**==.                      ",
"                    .**+&#+*+=======#*++++++&&++**=.                      ",
"                    .*++#+**=,')!~',=#*++++&##&++*==.                     ",
"                   .**++#+*=,{]^/(]{,=*+++&#&&+/+**=.                     ",
"                   .**++++=*,{'_):<{,*=++&+&++/[/**=.      .....          ",
"                   .**++++*=*,{}<}{,*=*+&+/+/+/|[/*=.   ...=====..        ",
"                   .*++++++*=*,,,,,*=*+&+/1/2/2/|3/=. ..====****==..      ",
"                  .**+++++++*=======*+&&+/|43[2//42/.====***++++**==.     ",
"                  .**+++&&&++*******+&&+/|3432/5/|6/===**+++++++++**=.    ",
"                  .**++&###&++++++++&&+/73/8/9/50/36/=*+++++++++++++**.   ",
"                  .*++&#####&&&&&&&&#&+/8/a/b/c0d/36/*++++++#######+++*.  ",
"                  .*++&###&&++++++&&&+/7/abbac50e/f/*+++++##.......##++*. ",
"                  .**+&##&++*======+++/7/abbg50d//h/++++##..       ..##+. ",
"                  .**++&&+*==******==+/f//a/c000/[/=++##..           ..##.",
"                   .**+++*=+*#;;#++*+*/f/f/f/0/0/1/++#..               ...",
"                   .**++++#+=======*+*/3ij343/f/7[/+#.                    ",
"                    .**+++*=klmnolk=**=/|p3[3f3f/|/#.                     ",
"                    ..*+++*=klqrslk=***=/t/[343|f/=.                      ",
"                   .+*.*+++*=klllk=*****=//u/8/1/=.                       ",
"                  .+#+*.*++**=====++*****==.=/=/=.                        ",
"                 .+#%%+*.*++******+*******==.===.                         ",
"                .+#%;;#+*.*++*********++***=.==.                          ",
"                .+#;-##+*.*******vv**++++**==..                           ",
"               .+#;-##+*. ..******.=*+++#+**=.                            ",
"               .#%;-#+*.    ..*****.=*+###+*==.                           ",
"              .+#%-#+*.       .......=+####+*=.                           ",
"              .+#%-#*.               .=+####+*=.                          ",
"              .+#%-#*.                .=+###+*=.                          ",
"              .+#%;#.                 .=+####+*=.                         ",
"              .+#%;#.                  .*+#%#+*=.                         ",
"               .+#%;#.   ..            .*+#%#+*=.                         ",
"               .+#%%##...#+.           .*+#%#+*=.                         ",
"                .+##%%%##+.           .*+#%#+*=.                          ",
"                 .++###++.            .++%#+*==.                          ",
"                  ..+++..            .+###+*==.                           ",
"                    ...            ..+###+*==.                            ",
"                                  .;%###+*==.                             ",
"                                 .;%###+*==.                              ",
"                                .;%##++*=..                               ",
"                                .%##+**..                                 ",
"                               .%##+*..                                   ",
"                               .%##+.                                     ",
"                               .%#+.                                      ",
"                               .#+.                                       ",
"                                .+.                                       ",
"                                .+.                                       ",
"                                 ..                                       "};
