/* XPM */
static char * waechter1_xpm[] = {
"91 90 46 1",
" 	c None",
".	c #0A0000",
"+	c #3B4348",
"@	c #343C40",
"#	c #556269",
"$	c #4A565C",
"%	c #40494E",
"&	c #2A3033",
"*	c #1E2325",
"=	c #2F373A",
"-	c #606F76",
";	c #743E3E",
">	c #C99494",
",	c #1B0000",
"'	c #BCAEAE",
")	c #8B7E71",
"!	c #6B3636",
"~	c #D7AEAE",
"{	c #C9A1A1",
"]	c #5E3636",
"^	c #9F9388",
"/	c #A4A4A4",
"(	c #D7D7D7",
"_	c #515151",
":	c #BCBCBC",
"<	c #A1A1A1",
"[	c #AEAEAE",
"}	c #7C7C7C",
"|	c #949494",
"1	c #360000",
"2	c #797979",
"3	c #430000",
"4	c #290000",
"5	c #51000D",
"6	c #868686",
"7	c #979797",
"8	c #898989",
"9	c #B1B1B1",
"0	c #6B6B6B",
"a	c #C9C9C9",
"b	c #847874",
"c	c #976E6E",
"d	c #150000",
"e	c #EAE7E7",
"f	c #916666",
"g	c #B4AAA0",
"                                                                                           ",
"                                                                                           ",
"                                                                                           ",
"                                                                                           ",
"                                                                                           ",
"                                                                                           ",
"                                                                                           ",
"                                                                                           ",
"                                                                                           ",
"                                                                                           ",
"                                               .....                                       ",
"                   ......                       .+@@..                                     ",
"                  .######..                      .++@@..                                   ",
"                 .#$$$$$$##.                      .@@+++.                                  ",
"                .#$$%%%%%$$#.                      .&@%+@.                                 ",
"                .#$%&&&&&%$$#.                      .&@%+@.                                ",
"               .#$%&..**&&%$$.                       .&@%+@.                               ",
"               .$$&.  .**&&%$$.                       .&@%@@.                              ",
"               .$%.    .**&&%$.                        .&%@@.                              ",
"               .$%.     .**&&%$.                       .&%@@&.                             ",
"                .$.     .**&&%$.                       .&%@=*.                             ",
"                 ..      .*&&%$#.                      .@%@=*.                             ",
"                         .*&&%$#.                     .&@$@&*.                             ",
"                         .**&%%$#.                    .&%@&&*.                             ",
"                         .**&%%$#.                   .&%#@&**.                             ",
"                          .*&@%$##.                 .&%$@&&*.                              ",
"                          .*&@%%$#.                .&%$@=&**.                              ",
"                          .*&@%%$##.        ..... .&%$@=&**.                               ",
"                          .*&&@%%$#..  .....&&&&&.&%$@==&**.                               ",
"                          .**&@@%%$@...@@@@@@@@@.&@%$@=&**.                                ",
"                           .*&&@@@@.@@@+++++++++.@%$@==&**.                                ",
"                           .**&&&&.@+++%%%%%+++.@+%$@=&**.                                 ",
"                            .***..@+%%%%%%%%%++.+%+@@=&*.*.                                ",
"                            .*..@@+%%%%%%%%%%+.@+%%+@=&*.**.                               ",
"                             .&&&%$++++%%%%%++.@+%%+@=&*.**.                               ",
"                              .**&&&$+++%%%++.@+%%%+@=&**.**.                              ",
"                              .**&&&+@+++++++%+++@=&&&****&*.     .......                  ",
"                             .#-#$%&@&@+++++%%+++@@=&&**&&&&*. ...*******..                ",
"                             .*****%&&@++++%%%++@@@=&&*&&&=&...*******&&&**.               ",
"                            .;>,';)*&*@+++%%%%++@@@@=&&&*...*******&&&@@@&&*.              ",
"                            .!>~{!)&*&@++%%%%++@,@@@@==&&*********&&@@@@@@@&*.             ",
"                            .)]!]^&*&@++%%%%+++,/,,@@@@=&&&******&&@@@%%%@@@&*.            ",
"                            .&)))&*&@++%%%%,+,,(_:<,@@@==&&&***&&&@@%%...%%@@&.            ",
"                            .*****&@++%%%%,<,/(/_:[,@@@@==&&**&&@@%%..   ..%@@&.           ",
"                            .&&@@@@++%%%%%,[:_/},|_[,@@@@=&&&&&@%%..       .%@@.           ",
"                             .&@@@++%%%++,[_:_},1,,_2,@@@=&&&&@%..          .%@@.          ",
"                             .&@+++++%++,2_,|,,34,4,|,@@==&&&@%.             .%@.          ",
"                             .&&@@@+++@@,|,4,135,61,,2,==&&&@..              .%@.          ",
"                             .******@@@,2,,1,45,_:,6,6,=&&&@.*.               .%.          ",
"                             .&@&&&&**@,6,6,6,,6_(_78_,&&&@.**.               .%.          ",
"                             .@%#%@@&@&,_87_:_6:_(_9[,&&&&.***.                .           ",
"                             .%*****&@&@,[9_(_:|,0,a,&&&&*****.                            ",
"                              .bcdeb*&&@@,a,(_|,@.@,&&&&&****.                             ",
"                              .bfcfb*&@@@@,,0,,@@@@@&&&&*****.                             ",
"                               .ggb*&@@@@@@@.@@@@@@&&&&&****.                              ",
"                               ...*&&&@@@@@@@@@@@@@&&&&****.                               ",
"                              .&&&.&&&&@@@@@@@@@@@&&&&&***.                                ",
"                              .&&@@.&&&&@@@@@&&&&@&&&&***.                                 ",
"                             .&&@%%@.&&&&&@&&***&&&&&***.                                  ",
"                             .&@%$#. .&&&&&&*&&&&*&&**..                                   ",
"                            .&@%$#.   ..*&&&&&&&&&***.                                     ",
"                            .&@%$.   .  .*&*&&@@&&**.                                      ",
"                            .&@%$.  .$.  .*&&@@%@&**.                                      ",
"                             .&@%$..$%.   .*&@%$%&*.                                       ",
"                             .&@%%$$%@.    .*@%$%&*.                                       ",
"                              .&@%%%@.     .*@%$%&*.                                       ",
"                               .&@@@.       .&@$%&*.                                       ",
"                                ....        .&@$%&*.                                       ",
"                                           .&@$%@&*.                                       ",
"                                          .&@%$%@&.                                        ",
"                                        ..@@%$%@&*.                                        ",
"                                      ..%%$$$%@&*.                                         ",
"                                     .#$$$%%%@&*.                                          ",
"                                    .#$%%@@@&**.                                           ",
"                                   .#$%&&**&...                                            ",
"                                  .##%&*....                                               ",
"                                  .$$&*.                                                   ",
"                                  .$%&.                                                    ",
"                                  .$%&.                                                    ",
"                                   .$%&.                                                   ",
"                                    .$%&.                                                  ",
"                                     .%%.                                                  ",
"                                      ...                                                  ",
"                                                                                           ",
"                                                                                           ",
"                                                                                           ",
"                                                                                           ",
"                                                                                           ",
"                                                                                           ",
"                                                                                           "};
