/* XPM */
static char * waechter6_xpm[] = {
"76 73 59 1",
" 	c None",
".	c #0A0000",
"+	c #2A3033",
"@	c #2F373A",
"#	c #40494E",
"$	c #343C40",
"%	c #3B4348",
"&	c #455056",
"*	c #4A565C",
"=	c #1E2325",
"-	c #606F76",
";	c #556269",
">	c #1B0000",
",	c #8B7E71",
"'	c #5E2828",
")	c #D7AEAE",
"!	c #A19494",
"~	c #F2F2F2",
"{	c #D7D7D7",
"]	c #9F9388",
"^	c #743E3E",
"/	c #C9AEAE",
"(	c #BCAEAE",
"_	c #AEAEAE",
":	c #C99494",
"<	c #C9A1A1",
"[	c #6B3636",
"}	c #A1A1A1",
"|	c #A4A4A4",
"1	c #515151",
"2	c #5E3636",
"3	c #BCBCBC",
"4	c #43000D",
"5	c #6E6E6E",
"6	c #797979",
"7	c #949494",
"8	c #7C7C7C",
"9	c #290000",
"0	c #360000",
"a	c #430000",
"b	c #51000D",
"c	c #868686",
"d	c #300000",
"e	c #510D0D",
"f	c #5E5E5E",
"g	c #847874",
"h	c #B4AAA0",
"i	c #926E6E",
"j	c #150000",
"k	c #EAE7E7",
"l	c #898989",
"m	c #979797",
"n	c #916161",
"o	c #976E6E",
"p	c #916666",
"q	c #B1B1B1",
"r	c #C9C9C9",
"s	c #6B6B6B",
"t	c #242A2C",
"                                                ......                      ",
"                                               .++++++..                    ",
"          .....                               .+@@@@@@++.                   ",
"        ..#####..                            .+@#####$@@+.                  ",
"      ..#########..                          .@#$++$##$$@+.                 ",
"    ..##%%%%%%##&##..                       .@#$+..+$##$$@.                 ",
"   .##%%%$$$%%%%#&&##.                      .#$+.  .+$##$@.                 ",
"  .#%%$$$+++$$%%%#&&&#.                     .$+.    .+$#$@+.                ",
" .#%$$+++...++$$%%#&*&#.                    .+.     .+$#$@+.                ",
" .%$++...   ..++$%%#&*&#.                   .+.     .+$#@+=.                ",
".%$+..        ..+$%%#&&&#.                   .     .+$##@+=.                ",
".$+.            .+$%%#&&#$.                        .+$#$@+=.                ",
".+.              .+$%%#-&#$.                      .+$##@+==.                ",
"..               .+$%%#*-#%$.                    .+$##$@+=.                 ",
"                  .+$%%&*-#%$.                 ..+$##$@+==.                 ",
"                   .+$%#&*&%$$.       ...    ..++$##$$@+=.                  ",
"                   .+$%%#&-*##$.   ...===.. .++$$##$$@+==.                  ",
"                    .+$%%#&-#&#+...=+++++==..+$###$$@+==.                   ",
"                    .+$$%%#&*&%$+++++++++++==.$$$$$@+==.                    ",
"                     .+$%%#&*##%%%%%$$$$+++++=.$$$@+===.                    ",
"                     .+$$%$%########%%$$$$++++=..@+===.                     ",
"                      .+$$$%###*****##%$$$$$+++==.===.                      ",
"                      .++$$%##*#####*##%$$$$$+++==.=.                       ",
"                       .+$%##*#+++++#*##%$$$$$+++=..                        ",
"                       .+$%#*#+*;;;*+$*#%$$$$$$+++=.                        ",
"                      .+$$%##+*;---;*+$%%$$$$$$$$+==.                       ",
"                     .++$%#$+$=======#+$$$$$$%%$>$+=.                       ",
"                     .+$$#$++=,')!~',=#+$$$$%$$>{>++=.                      ",
"                    .++$$#$+=,]^/>(^],=+$$$>$>$>_{>+=.                      ",
"                    .++$$$$=+,]':)<[],+=$$>}>|>|>_1>=.                      ",
"                    .++$$$$+=+,]2[2],+=+$$>_31{|>>3|>.     .........        ",
"                    .+$$$$$$+=+,,,,,+=+$$>_131|>4>_5>.  ...=====++++..      ",
"                   .++$$$$$$$+=======+$$>61>7>8>44>15>..=====+++$$$$++..    ",
"                   .++$$$%%%$$+++++++$%%>7>9>0>ab4>15>=====++$$$$$$$$$++..  ",
"                   .++$$%###%$$$$$$$$%%>6>9009a4b4>c5>==+++$$$$$######$$++. ",
"                   .+$$%#####%%%%%%%%#%>6>900d4be4>c5>++$$$$$###......####+.",
"                   .+$$%###%%$$$$$$%%%$>c>990abbb4>f>+$$$$$##...      ..... ",
"                   .++$%##%$$+======$$$>6>900d4be4>c>$$$$##..               ",
"                   .++$$%%$+==++++++==$>6>900d4be4>f>$$##..                 ",
"                    .++$$$+=$+#;;#$$+$+>c>>9>abbb>{>$$#..                   ",
"                    .++$$$$#$=======+$+>c>c>c>b>b>}>$#.                     ",
"                     .++$$$+=ghijkhg=++>1lm131>c>6{>=.                      ",
"                     ..+$$$+=ghnophg=+$+>_q1{1c1c>_>.                       ",
"                    .$+.+$$$+=======+$$$+>r>{131_c>.                        ",
"                   .$##+.+$$+++++++$$$$$$+>>s>7>}>.                         ",
"                  .$#*;#+.+$$++++++$$$$++++=..>=>.                          ",
"                 .$#*;*##+.+$$++++t$$+++++++==.=.                           ",
"                 .$#-*##$+.+++++++tt++++$$+++==.                            ",
"                .$#-*##$+. ..++++++.=+++$$$$++=.                            ",
"                .$#;##$+.    ..+++++.=+$###$$+=.                            ",
"               .$#;*#$+.       .......=+$#*#$$+.                            ",
"               .$#-##$.               .=+$#*#$+=.                           ",
"               .$#-##$.                .=+$#*#$+.                           ",
"               .$#-#$.                  .=+$*#$+.                           ",
"               .$#;#$.                  .=+$*#$+.                           ",
"               .$#*#$.                   .+$#$+=.                           ",
"                .$#*$.                   .+$#$+.                            ",
"                .$##*$.                  .+$#$+.                            ",
"                 .$##*$.                .+$#$$.                             ",
"                  .$$#**.               .$*#$+.                             ",
"                   ..$$$$.             .$*#$$.                              ",
"                     ....             .$*#$$+.                              ",
"                                      .$*#$+.                               ",
"                                     .$*#$+.                                ",
"                                     .$*#$+.                                ",
"                                     .$*#$.                                 ",
"                                     .$*#$.                                 ",
"                                     .$#$.                                  ",
"                                      .#$.                                  ",
"                                      .#$.                                  ",
"                                      .#$.                                  ",
"                                       .$.                                  ",
"                                        .                                   "};
