/* XPM */
static char * waechter4_xpm[] = {
"82 86 58 1",
" 	c None",
".	c #0A0000",
"+	c #343C40",
"@	c #3B4348",
"#	c #40494E",
"$	c #2A3033",
"%	c #455056",
"&	c #3F484D",
"*	c #4A565C",
"=	c #2F373A",
"-	c #1E2325",
";	c #353D41",
">	c #606F76",
",	c #556269",
"'	c #0D1B1B",
")	c #8B7E71",
"!	c #9F9388",
"~	c #743E3E",
"{	c #C9AEAE",
"]	c #1B0000",
"^	c #BCAEAE",
"/	c #5E2828",
"(	c #C99494",
"_	c #D7AEAE",
":	c #C9A1A1",
"<	c #6B3636",
"[	c #5E3636",
"}	c #D7D7D7",
"|	c #AEAEAE",
"1	c #A1A1A1",
"2	c #A4A4A4",
"3	c #515151",
"4	c #BCBCBC",
"5	c #43000D",
"6	c #6E6E6E",
"7	c #797979",
"8	c #949494",
"9	c #7C7C7C",
"0	c #51000D",
"a	c #290000",
"b	c #360000",
"c	c #430000",
"d	c #510D0D",
"e	c #868686",
"f	c #898989",
"g	c #979797",
"h	c #B1B1B1",
"i	c #847874",
"j	c #B4AAA0",
"k	c #926E6E",
"l	c #150000",
"m	c #EAE7E7",
"n	c #C9C9C9",
"o	c #916161",
"p	c #976E6E",
"q	c #916666",
"r	c #6B6B6B",
"s	c #242A2C",
"                                                                                  ",
"                                                                                  ",
"                                                                                  ",
"                                                                                  ",
"                                                                                  ",
"                                                                                  ",
"                                                                                  ",
"                                                                                  ",
"                                               .....                              ",
"                                                .+@+..                            ",
"                                                 .+@@@..                          ",
"                                                  .+##@+.                         ",
"                                                   .$+#@+.                        ",
"                                                    .$+#@+.                       ",
"                                                     .$#@++.                      ",
"                                                      .+#@+.                      ",
"            .........                                  .+#++.                     ",
"          ..+######+$..                                .+#++.                     ",
"        ..#%%%%%%%#####..                              .$#++.                     ",
"       .##%######%%%%%%%#..                            .$#++$.                    ",
"      .#%%&@@@@@@##%%%%**%#..                          .$#+=-.                    ",
"     .+%@@;$$$$$$++@@##%**%#+.                         .+#+=-.                    ",
"     .#@++$......$$+++@#%**%##.                        .+*+$-.                    ",
"     .@++$.      ..$$++@#%*>%##.                      .$+#=$-.                    ",
"    .+++$.         ..$++@#%%%#@#.                    .$+#*=--.                    ",
"    .++$.            .$++@#%>%#@+.                  .$+#*=$--.                    ",
"    .++$.             .$++@#%>%@++.       ...     ..$+#,+=$-.                     ",
"    .+$.               .$++@#%>*#++.   ...---.'  .$$+#,+=$--.                     ",
"    .+$.                .$+@@#%>##+$...$$$$$$--..-=+#*+=$--.                      ",
"    .+$.                 .$+@@#%**#+++++++$$$$$--.-##+=$---.                      ",
"    .+$.                 .$+@@#%*##@@@@@++++$$$$$-.#+=$---.                       ",
"     .+$.                 .++@+@########@@++++$$$$-..----.                        ",
"      .+.                 .$$++@########@#@+++++$$$--.--.                         ",
"       .                   .$++@###*****###@+++++$$$--..                          ",
"                           .$+@##**#####**##@+++++$$$-..                          ",
"                           .$+@#*##$$$$$#+*#@++++++$$$-.                          ",
"                          .$++@##$$*,,,*$$+@@+++++++$$--.                         ",
"                         .$$+@#+$+*,>>>,*#$++++++@@++$$-.                         ",
"                         .$++#+$$---------#$++++@##@++$--.                        ",
"                        .$$++#+$-)!~{]^~!)-$+++@#@@+++$$-.      .....             ",
"                        .$$++++-$)!/(_:<!)$-++@+@+++]+$$-.   ...-----..           ",
"                        .$$++++$-$)![<[!)$-$+@+++++]}]$$-. ..-----$$---.          ",
"                        .$++++++$-$)))))$-$+@++]+]+]|}]$-..-----$$++++$-.         ",
"                       .$$+++++++$-------$++@+]1]2]2]|3]-.----$$++++++++-.        ",
"                       .$$+++@@@++$$$$$$$+@@@+]|43}2]]42]----$$++++##+++$-.       ",
"                       .$$++@###@++++++++@@@+]|3432]5]|6]]--$$+++##..##+++.       ",
"                       .$++@#####@@@@@@@@#@+]73]8]9]50]36]-$$++##..  ..#+++.      ",
"                       .$++@###@@++++++@@@++]8]a]b]c0d]e]--$++#..      .#++.      ",
"                       .$$+@##@++$------+++]7]]b]ac50]}]]-$$+#.         .#++.     ",
"                       .$$++@@+$--$$$$$$--+]e]e]e]0]0]1]--$+#.           .#+.     ",
"                        .$$+++$-+$#,,#++$+$]3fg343]e]7}]-$$#.            .#+.     ",
"                        .$$++++#+-------$+$-]|h3}3e3e]|]-$$.              .#.     ",
"                         .$$+++$-ijklmji-$$--]n]}343|e]--$.               .#.     ",
"                        .+.$+++$-ijopqji-$+$--]]r]8]1]--$.                 .      ",
"                       .+#$.$+++$-ijjji-$+++$---.-]-]--..                         ",
"                      .+#*#$.$++$$-----++++++$--.-]-]-..                          ",
"                     .+#*,#+$.$++$$$$$$++++$$$$--.---.                            ",
"                     .#,*##+$$.$++$$$$$++$$$$$$$--.-.                             ",
"                    .#*>###+$..$$$$$$$ss$$$$++$$$--.                              ",
"                    .#,,##+$.  ..$$$$$$.-$$$++++$$--.                             ",
"                   .+#>##+$.     ..$$$$$.-$++++++$$-.                             ",
"                   .+#>##+.        .......-$++++++$--.                            ",
"                   .+#>#+.    .           .-$$+++++$-.                            ",
"                   .+#>#+.   .+.           ..-$+##+$--.                           ",
"                   .+#,#+.   .+.             .-+#*+$$-.                           ",
"                    .+*,#.  .#+.              .$+*#$$-.                           ",
"                    .+#**#..#+.               .$+*#$$-.                           ",
"                     .+##***#+.               .$+*+$--.                           ",
"                      .++++++.                .+##+$--.                           ",
"                       ......               ..$+#+$--.                            ",
"                                         ...-$+##+$--.                            ",
"                                     ....#######+$--.                             ",
"                                   ..***######+$$-..                              ",
"                                 ..,*###+++$$$--..                                ",
"                                 .,*#+$$$---....                                  ",
"                                .,*#$.......                                      ",
"                                .,#$.                                             ",
"                               .**$.                                              ",
"                               .*#.                                               ",
"                               .*#.                                               ",
"                                .*#.                                              ",
"                                 .#+.                                             ",
"                                  ...                                             ",
"                                                                                  ",
"                                                                                  ",
"                                                                                  "};
