/* XPM */
static char * door1_xpm[] = {
"64 64 21 1",
" 	c #28316A",
".	c #6A74B2",
"+	c #0E0C0C",
"@	c #645D5D",
"#	c #323232",
"$	c #2D3749",
"%	c #425464",
"&	c #1F3549",
"*	c #293676",
"=	c #ED2727",
"-	c #FF6565",
";	c #191F49",
">	c #181C37",
",	c #43D15B",
"'	c #9FA4C8",
")	c #48556D",
"!	c #161B24",
"~	c #891414",
"{	c #B6B531",
"]	c #767676",
"^	c #A43825",
"                                                                ",
" ...............................................................",
" ...............................................................",
" ...............................................................",
" ...............................................................",
" ...............................................................",
" ...............................................................",
" ...............................................................",
" ...............................................................",
" ..........++++++++++++++++++++++++++++++++++++++++++.......... ",
" .........+@@@@@@@@@@@@@@@@@@@@@@@@@@@@@@@@@@@@@@@@@@+......... ",
" ........+@##########################################@+........ ",
" .......+@##++++++++++++++++++++++++++++++++++++++++##@+....... ",
" ......+@##+$$$+%%%%%%%%%%%%%%%%%%%%%$+$$$$$$$$$$$$$+##@+...... ",
" .....+@##+&&%&$+%%%%%%%%%%%%%%%%%%%%$+%&%&%&%&%&%&%$+##@+..... ",
" ....+@##+&%%&%&$+%%%%%%%%%%%%%%%%%%%$+&%&%&%&%&%&%&%$+##@+.... ",
" ...+@##+&%&&%&%&$+%%%%%%%%%%%%%%%%%%$+%&%&%&%&%&%&%&%$+##@+... ",
" ..+@##+&%&%%&%&%%$+%++%%%%%%%%%%%%%%$+&%&%&%&%&%&%&%&%$+##@+.. ",
" .+@##+&%&%&&%&%&&%$+**+%%%%%%%%%%%%%$+%&%&%&%&%&%&%&%&%$+##@+. ",
" .+##+%%&%&%%&%&%%&+*++*+%%%%%%%%%%%%$+&%&%&%&%&%&%&%&%&%$+##+. ",
" .+##+&&%&%&&%&%&&+*+=-+*+%%%%%%%%%%%$+%&%&%&%&%&%&%&%&%&$+##+. ",
" .+##+%%&%&%%&%&%%+*+=-+*+%%%%%%%%%%%$+&%&%&%&%&%&%&%&%&$+@##+. ",
" .+##++++++%&%&%&&+*+==+*+%%%%%%%%%%%$+%&%&%&%&%&%&%&%&$+@###+. ",
" .+#+;;;;;;+%&%&%%&+*++*+%%%%%%%%%%%%$+&%&%&%&%&%&%&%&%$+@#+#+. ",
" .+#+;;;;;;+&%&%&&%$+**+%%%%%%%%%%%%%$+%&%&%&%&%&%&%&%&$+@###+. ",
" .+++;;;;;;+%&%&%%$+%++%+%%%%%%%%%%%%$+&%&%&%&%&%&%&%&%$+@###+. ",
" .+>+;++++;+&%&%&$+%%%%%%+%%%%%%%%%%%$+%&%&%&%&%&%&%&%&$+@###+..",
" .+>+;+,,+;+%&%&$+%%%%%%%%+%%%%%%%%%%$+&%&%&%&%&%&%&%&%$+@###+..",
" .+>+;+,,+;+&%&$+%%%%%%%%%%+%%%%%%%%%$+%&%&%&%&%&%&%&%&$+@###+..",
" .+>+;+,,+;+$$$+%%%%%%%%%%%%+%%%%%%%%$+&%&%&%&%&%&%&%&%$+@###+..",
" .+>+;++++;++++%%%%%%%%%%%%%%+%%%%%%%$+%&%&%&%&%&%&%&%&$+@###+..",
" .+>+;;;;;;+%%%%%%%%%%%%%%%%%%+%%%%%$+%&%&%&%&%&%&%&%&%$+@###+..",
"..+>+;++++;+%%%%%%%%%%%%%%%%%%%+%%%$+%&++++++%&%&%&%&%&$+@###+..",
"..+>+;+''+;+%%%%%%%%%%%%%%%%%%%%+$$+%&+)$$$$!+%&%&%&%&%$+@###+..",
"..+>+;++++;+%%%%%%%%%%%%%%%%%%%%$++%&+)$$$+$!+&%&%&%&%&$+@###+..",
"..+++;++++;+%%%%%%%%%%%%%%%%%%%%$+%&+)$$$$$$!+%&%&%&%&%$+@#+#+..",
"..+#+;+''+;+%%%%%%%%%%%%%%%%%%%$+%&+)$$$$$$$!+&%&%&%&%&$+@###+..",
"..+#+;++++;+%%%%%%%%%%%%%%%%%%$+%&+)$$$$$$$$!+%&%&%&%&%&$+@##+..",
"..+#+;;;;;;+%%%%%%%%%%%%%%%%%$+%&+)$$$$$$$$$!+&%&%&%&%&%&$+##+..",
"..+##++++++%%%%%%%%%%%%%%%%%$+%&+)$$$$$$$$$$!+%&%&%&%&%&%$+##+..",
"..+##+%%%%%%%%%%%%%%%%%%%%%$+%&+)$$$$$$$$$$$!+&%&%&%&%&%&$+##+..",
"..+##+%%%%%%%%%%%%%%%%%%%%$+%&+)$+$$$$$$$$$$!+%&%&%&%&%&%$+##+..",
"..+##+%%%%%%%%%%%%%%%%%%%$+%&+)$$$$$$$$$$$$$!+&%&%&%&%&%&$+##+..",
"..+##+%%%%%%%%%%%%%%%%%%$+%&+)$$$$$$$$$$$$$$!+%&%&%&%&%&%$+##+..",
"..+##++%%%%%%%%%%%%%%%%$+%&+)$$$$$$$$$$$$$$$!+&%&%&%&%&%&++##+..",
"..+##+$+%%%$$$%%%%%%%%$+%&+)$$$$$$$$$$$$$$$$!+%&%&$$$&%&+$+@#+..",
"..+##+%$+%$+++$$%%%%%$+%&+)$$$$$$$$$$$$$$$$$!+&%&$+++$&+$$+##+..",
"..+##+%%$+$+~$++%%%%%$+&+)$$$$$$$$$$$$$$$$$$!+%&++$~+$+$%$+@#+..",
"..+##+%%%$++++$$%%%%%$+%+)$$$$$$$$$$$$$$$$$$!+&%&$++++$%%$+##+..",
"..+##+++++++~$++%%%%%$+&+)$$$$$$$$$$$$$$$$$$!+%&++$~+++++++##+..",
"..+##+{{{+++++$$%%%%%$+%+)$$$$$$$$$$$$$$$$$$!+&%&$+++++{{{+@#+..",
"..+##+++++++~$++%%%%%$+&+)$$$$$$$$$$$$$$$$$$!+%&++$~+++++++##+..",
"..+##+%%%$++++$$%%%%%$+%+)$$$$$$$$$$$$$$$$$$!+&%&$++++$%%$+##+..",
"..+##+%%$+$+~$++%%%%%$+&+)$+$$$$$$$$$$$$$+$$!+%&++$~+$+$%$+@#+..",
"..+##+%$+%$+++$$%%%%%$+%+)$$$$$$$$$$$$$$$$$!!+&%&$+++$&+$$+##+..",
"..+##+$+%%%$$$%%%%%%%$+&+!!!!!!!!!!!!!!!!!!!!+%&%&$$$&%&+$+##+..",
"..+##++%%%%%%%%%%%%%%$+%&++++++++++++++++++++%&%&%&%&%&%&++@#+..",
"..+##+%%%%%%%%%%%%%%%$+&%&%&%&%&%&%&%&%&%&%&%&%&%&%&%&%&%$+@#+..",
"..+##++++++++++++++++++++++++++++++++++++++++++++++++++++++@#+..",
"..+##+]]+^^+]]+^^+]]+^++]]+^^+]]+^^+]]+^^+]]+^^+]]+^^+]]+^+##+..",
"..+##+]+^^+]]+^^+]]+^^+]]+^^+]]+^^+]]+^^+]]+^^+]]+^^+]]+^^+@#+..",
"..+##++++++++++++++++++++++++++++++++++++++++++++++++++++++@#+..",
"..+##+%%%%%%%%%%%%%%%$+%%%%%%%%%%%%%%%%%%%%%%%%%%%%%%%%%%$+@#+..",
"  +##+$$$$$$$$$$$$$$$$+$$$$$$$$$$$$$$$$$$$$$$$$$$$$$$$$$$$+##+  "};
