/* XPM */
static char *_c56c2ee62b54211934e941e0b27feb7JMob0cm4envyeLm8[] = {
/* columns rows colors chars-per-pixel */
"60 60 130 2 ",
"   c None",
".  c black",
"X  c #020101",
"o  c #020202",
"O  c #040303",
"+  c #040404",
"@  c gray2",
"#  c #060505",
"$  c #060606",
"%  c #070707",
"&  c #080707",
"*  c #0B0A0A",
"=  c #0B0B0B",
"-  c #0C0C0C",
";  c #0D0C0C",
":  c #0F0E0E",
">  c #111010",
",  c #131212",
"<  c #141212",
"1  c #141313",
"2  c gray8",
"3  c #151515",
"4  c #171616",
"5  c #181818",
"6  c #191818",
"7  c #1A1919",
"8  c #1B1919",
"9  c #1B1B1B",
"0  c #1D1B1B",
"q  c #1D1C1C",
"w  c #1E1D1D",
"e  c #330F0F",
"r  c #201E1E",
"t  c #211F1F",
"y  c #262323",
"u  c #272525",
"i  c #272626",
"p  c #272727",
"a  c #282626",
"s  c #282727",
"d  c #2D2A2A",
"f  c #2D2B2B",
"g  c #2E2B2B",
"h  c #2F2B2B",
"j  c #2E2C2C",
"k  c #302E2E",
"l  c #312E2E",
"z  c #323131",
"x  c #343232",
"c  c #373737",
"v  c #383737",
"b  c #3A3737",
"n  c #3B3838",
"m  c #3C3838",
"M  c #3C3939",
"N  c #3C3B3B",
"B  c #3F3C3C",
"V  c #403E3E",
"C  c #403F3F",
"Z  c #413F3F",
"A  c #423E3E",
"S  c #423F3F",
"D  c #433F3F",
"F  c #414040",
"G  c #424040",
"H  c #424141",
"J  c #434141",
"K  c #444141",
"L  c #444242",
"P  c #444343",
"I  c #454343",
"U  c #464242",
"Y  c #464343",
"T  c #454444",
"R  c #464444",
"E  c #474545",
"W  c #474646",
"Q  c #484646",
"!  c #494747",
"~  c #4A4747",
"^  c #4C4747",
"/  c #4A4848",
"(  c #4C4949",
")  c #4E4949",
"_  c #4D4B4B",
"`  c #4E4B4B",
"'  c #4F4C4C",
"]  c #504B4B",
"[  c #504D4D",
"{  c #514D4D",
"}  c #514E4E",
"|  c #524F4F",
" . c #535050",
".. c #555151",
"X. c #565252",
"o. c #565353",
"O. c #585454",
"+. c #595555",
"@. c #5A5656",
"#. c #5B5656",
"$. c #5A5757",
"%. c #5B5757",
"&. c #5C5757",
"*. c #5D5757",
"=. c #5E5757",
"-. c #5C5858",
";. c #5D5858",
":. c #5D5959",
">. c #5E5959",
",. c #5F5B5B",
"<. c #605B5B",
"1. c #605C5C",
"2. c #615C5C",
"3. c #625D5D",
"4. c #635E5E",
"5. c #645F5F",
"6. c #656060",
"7. c #666060",
"8. c #666161",
"9. c #676161",
"0. c #676262",
"q. c #686262",
"w. c #686363",
"e. c #696363",
"r. c #696464",
"t. c #6A6464",
"y. c #6B6464",
"u. c #6A6565",
"i. c #6B6565",
"p. c #F2EB00",
/* pixels */
"                                                                                                                        ",
"                                                                                                                        ",
"                                                                                                                        ",
"                                                                                                                        ",
"                                                                                                                        ",
"                                                                                                                        ",
"                                                                                                                        ",
"                                                                                                                        ",
"                                                                                                                        ",
"                                                                                                                        ",
"                                                                                                                        ",
"                    G $.t.t.t.t.t.t.t.t.V % 5 V V G $.t.t.t.t.t.t.t.t.t.t.n X n t.t.t.t.t.                              ",
"                  V G $.t.9.9.e.t.t.t.t.V % w I I E -.t.t.t.9.9.t.t.t.t.t.N X N t.9.9.e.t.                              ",
"                  V G $.9.o.| 4.t.t.t.5 5 5 a 5 5 5 5 5 5 5 5 5 5 5 5 5 t.N X N e.$.| 4.t.                              ",
"                  V G $.9.| ` 4.t.t.5 5 5 5 5 5 5 5 5 5 5 5 5 5 5 5 5 5 5 m X N e.| I -.t.                              ",
"                  V G $.e.4.4.e.t.t.5 % e e e e % e e e e % e e e e % e 5 m X N e.| I -.t.                              ",
"                  l z I ] ] ] ] ] 5 5 % e e e e % e e e e % e e e e % e 5 5 X g ` N x I ]                               ",
"                  = - > < < < < < 5 < % e e e e % e e e e % e e e e % e < 5 X = > - - > <                               ",
"                  t t t t t 5 & & 5 e % e e e e % e e e e % e e e e % e e 5 t 5 t 5 4 0 t                               ",
"                  *.-.-.-.-.^ 4 4 5 e % e e e e % e e e e % e e e e % e e 5 5 5 $.I N | *.                              ",
"                  $.$.5.t.t.o.5 5 5 e % e e e e % e e e e % e e e e % e e 5 5 5 e.| I -.t.                              ",
"                  G I $.t.t.o.5 5 e e % e e e e % e e e e % e e e e % e e e 5 5 e.| I -.t.                              ",
"                  o.o.4.t.t.o.5 5 e e % e e e e % e e e e % e e e e % e e e 5 5 e.-.$.5.t.                              ",
"                  t.t.t.t.t.o.5 5 e e % e e e e % e e e e % e e e e % e e e 5 5 t.t.t.t.t.                              ",
"                  g j j j j y 5 e e e % e e e e % e e e e % e e e e % e e e e 5 j j j j g                               ",
"                  % % % % % O 5 e e e % e e e e % e e e e % e e e e % e e e e 5 % % % % %                               ",
"                  V V V B l a 5 l l e % e e e e % e e e e % e e e e % e e e e 5 V V V V V                               ",
"                  9.9.e.9.| I 5 l l e % e e e e % e e e e % e e e e % e e e e 5 t.9.9.e.t.                              ",
"                  ` ' -.e.4.$.5 e e e % e e e e % e e e e % e e e e % e e e e 5 e.$.| 4.t.                              ",
"                  E / -.t.t.5.5 e e e % e e e e % e e e e % e e e e % e e e e 5 e.o.` <.t.                              ",
"                  <.4.9.t.t.e.5 e e e % e e e e % e e e e % e e e e % e e e e 5 t.5.4.9.t.                              ",
"                  ] ] ] ] ] ] 5 e e e % e e e e % e e e e % e e p.e % p.e e e 5 ] ] ] ] ]                               ",
"                  < < < < < < 5 e e e % e e e e % e e e e % e e e p.p.e e e e 5 < < < < <                               ",
"                  4 < < 4 0 5 5 e e e % e e e e % e e e e % e e e p.p.e e e e 5 X < t t t                               ",
"                  c v v N | ^ 5 e e e % e e e e % e e e e % e e p.e e p.e e e 5 % v -.-.*.                              ",
"                  V V ~  .4.o.5 e e e % e e e e % e e e e % e e p.e e p.e e e 5 % V e.-.$.                              ",
"                  V G $.e.t.o.5 e e e % e e e e % e e e e % e e e p.p.e e e e 5 % V 9.' G                               ",
"                  V G $.t.t.o.5 e e e % e e e e % e e e e % e e e e % e e e e 5 % V e.*.o.                              ",
"                  V G $.t.t.o.5 e e e % e e e e % e e e e % e e e e % e e e e 5 % V t.t.t.                              ",
"                  5 w u j j y 5 e e e % e e e e % e e e e % e e e e % e e e e 5 X 0 j j g                               ",
"                  % O O O O % 5 e e e % e e e e % e e e e % e e e e % e e e e 5 O O O O %                               ",
"                  u a a a a g 5 l l e % e e e e % e e e e % e e e e % e e e e 5 a a a a u                               ",
"                  E I I I G ~ 5 l l e % e e e e % e e e e % e e e e % e e e e 5 I I I I E                               ",
"                  -.-.-.$.~ ~ 5 e e e % e e e e % e e e e % e e e e % e e e e 5 -.-.-.-.-.                              ",
"                  t.t.t.9.| ` 5 e e e % e e e e % e e e e % e e e e % e e e e 5 t.t.t.t.t.                              ",
"                  t.t.t.e.4.4.5 e e e % e e e e % e e e e % e e e e % e e e e 5 t.t.t.t.t.                              ",
"                    t.t.t.t.t.5 e e e % e e e e % e e e e % e e e e % e e e e 5 t.t.t.t.t.                              ",
"                                                                              5                                         ",
"                                                                                                                        ",
"                                                                                                                        ",
"                                                                                                                        ",
"                                                                                                                        ",
"                                                                                                                        ",
"                                                                                                                        ",
"                                                                                                                        ",
"                                                                                                                        ",
"                                                                                                                        ",
"                                                                                                                        ",
"                                                                                                                        ",
"                                                                                                                        "
};
