/* XPM */
static char * door4_xpm[] = {
"64 64 14 1",
" 	c #28316A",
".	c #1B1B1B",
"+	c #6A74B2",
"@	c #767474",
"#	c #C8C8C8",
"$	c #897F75",
"%	c #524C46",
"&	c #43764F",
"*	c #62A46A",
"=	c #81BF7C",
"-	c #4998ED",
";	c #A7DBFF",
">	c #AD823C",
",	c #E4AC50",
"  ............................................................  ",
"++.@@#.$$$$$$$$$$$$$$$$$$$$$$$$..$$$$$$$$$$$$$$$$$$$$$$$$.#@@.++",
"++.@@#.$%%%%%%%%%%$$..........$..$..........$$%%%%%%%%%%$.#@@.++",
"++.@@#.$$$$$$$$$$$$$$%%%%%%%%.$..$.%%%%%%%%$$$$$$$$$$$$$$.#@@.++",
"++.@@#.$$$$$$$$$$$$$$$%%%%%%%.$..$.%%%%%%%$$$$$$$$$$$$$$$.#@@.++",
"++.@@#.$$$$$$$$$$$$$$$$%%%%%%.$..$.%%%%%%$$$$$$$$$$$$$$$$.#@@.++",
"++......$$$$$$$$$$$$$$$$%%%%%.$..$.%%%%%$$$$$$$$$$$$$$$$......++",
"++.&*=&.$$$$$$$$$$$$$$$$$%%%%.$..$.%%%%$$$$$$$$$$$$$$$$$.&=*&.++",
"++.&*=&.$$$$$$$$$$$$$$$$$$%%%.$..$.%%%$$$$$$$$$$$$$$$$$$.&=*&.++",
"++.&*=&.$$$$$$$$$$$$$$$$$$$%%.$..$.%%$$$$$$$$$$$$$$$$$$$.&=*&.++",
"++.&*=&.$$$$$$$$$$$$$$$$$$$$%.$..$.%$$$$$$$$$$$$$$$$$$$$.&=*&.++",
"++.&*=&.$$$$$$$$$$$$$$$$$$$$$.$..$.$$$$$$$$$$$$$$$$$$$$$.&=*&.++",
"++.&*=&.$$$$$$$$$$$$$$$$$$$$$.$..$.$$$$$$$$$$$$$$$$$$$$$.&=*&.++",
"++........$$$$$$$$$$$$$$$$$$$.$..$.$$$$$$$$$$$$$$$$$$$........++",
"++.&****=&.$$$$$$$$$$$$$$$$$$.$..$.$$$$$$$$$$$$$$$$$$.&=****&.++",
"++.&.....&.$$$$$$$$$$$$$$$$$$.$..$.$$$$$$$$$$$$$$$$$$.&.....&.++",
"++.&.---.&.$$$$$$$$$$$$$$$$$$.$..$.$$$$$$$$$$$$$$$$$$.&.---.&.++",
"++.&.-;-.&.$$$$$$$$$$$$$$$$$$.$..$.$$$$$$$$$$$$$$$$$$.&.-;-.&.++",
"++.&.-;-.&.$$$$$$$$$$$$$$$$$$.$..$.$$$$$$$$$$$$$$$$$$.&.-;-.&.++",
"++.&.-;-.&.$$$$$$$$$$$$$$$$$$$$..$$$$$$$$$$$$$$$$$$$$.&.-;-.&.++",
"++.&.-;-.&.$$$$$$$$$$$$$$$$$$$$..$$$$$$$$$$$$$$$$$$$$.&.-;-.&.++",
"++.&.-;-.&.$$$$$$$$$$$$$$$$$$$....$$$$$$$$$$$$$$$$$$$.&.-;-.&.++",
"++.&.-;-.&.$$$$$$$$$$$$$$$$$$.&..&.$$$$$$$$$$$$$$$$$$.&.-;-.&.++",
"++.&.-;-.&.$$$$$$$$$$$$$$$$$.&*..*&.$$$$$$$$$$$$$$$$$.&.-;-.&.++",
"++.&.-;-.&.$$$$$$$$$$$$$$$$.&**..**&.$$$$$$$$$$$$$$$$.&.-;-.&.++",
"++.&.-;-.&.$$$$$$$$$$$$$$$$.&......&.$$$$$$$$$$$$$$$$.&.-;-.&.++",
"++.&.-;-.&.$$$$$$$$$$$$$$$$.&.=..=.&.$$$$$$$$$$$$$$$$.&.-;-.&.++",
"++.&.---.&.$$$$$$$$$$$$$$$$.&.=..=.&.$$$$$$$$$$$$$$$$.&.---.&.++",
"++.&.....&.$$$$$$$$$$$$$$$$.&.=..=.&.$$$$$$$$$$$$$$$$.&.....&.++",
"++.&****=&.$$$$$$$$$$$$$$$$.&.=..=.&.$$$$$$$$$$$$$$$$.&=****&.++",
"++.&***=&.$$$$$$$$$$$$$$$$$.&.=..=.&.$$$$$$$$$$$$$$$$$.&=***&.++",
"++.&**=&.$$$$$$$$$$$$$$$$$$.&.=..=.&.$$$$$$$$$$$$$$$$$$.&=**&.++",
"++.&*=&.$$$$$$$$$$$$$$$$$$$.&.=..=.&.$$$$$$$$$$$$$$$$$$$.&=*&.++",
"++.&*=&.$$$$$$$$$$$$$$$$$$$.&......&.$$$$$$$$$$$$$$$$$$$.&=*&.++",
"++.&*=&.$%$$$$$$$$$$$$$$$$$.&**..**&.$$$$$$$$$$$$$$$$$%$.&=*&.++",
"++.&*=&.$%$$$$$$$$$$$$$$$$$$........$$$$$$$$$$$$$$$$$$%$.&=*&.++",
"++.&*=&.$%$$$$$$$$$$$$$$$$$$$$$..$$$$$$$$$$$$$$$$$$$$$%$.&=*&.++",
"++.&*=&.$%$$$$$$$$$$$$$$$$$$$%$..$%$$$$$$$$$$$$$$$$$$$%$.&=*&.++",
"++.&*=&.$%$$$$$$$$$$$$$$$$$$$%$..$%$$$$$$$$$$$$$$$$$$$%$.&=*&.++",
"++.&*=&.$%$$$$$$$$$$$$$$$$$$$%$..$%$$$$$$$$$$$$$$$$$$$%$.&=*&.++",
"++.&*=&.$%$$$$$$$$$$$$$$$$$$$%$..$%$$$$$$$$$$$$$$$$$$$%$.&=*&.++",
"++.&*=&.$%$$$$$$$$$$$$$$$$$$$%$..$%$$$$$$$$$$$$$$$$$$$%$.&=*&.++",
"++.&*=&.$%$$$$$$$$$$$$$$$$$$$%$..$%$$$$$$$$$$$$$$$$$$$%$.&=*&.++",
"++.&*=&.$%$$$$$$$$$$$$$$$$$$$%$..$%$$$$$$$$$$$$$$$$$$$%$.&=*&.++",
"++.&*=&.$%$$$$$$$$$$$$$$$$$$$%$..$%$$$$$$$$$$$$$$$$$$$%$.&=*&.++",
"++.&*=&.$%$$$$$$$$$$$$$$$$$$$%$..$%$$$$$$$$$$$$$$$$$$$%$.&=*&.++",
"++.&*=&.$%$$$$$$$$$$$$$$$$$$$%$..$%$$$$$$$$$$$$$$$$$$$%$.&=*&.++",
"++.&*=&.$%$$$$$$$$$$$$$$$$$$$%$..$%$$$$$$$$$$$$$$$$$$$%$.&=*&.++",
"++.&*=&.$%$$$$$$$$$$$$$$$$$$$%$..$%$$$$$$$$$$$$$$$$$$$%$.&=*&.++",
"++.&*=&.$$$$$$$$$$$$$$$$$$$$$%$..$%$$$$$$$$$$$$$$$$$$$$$.&=*&.++",
"++.&*=&.$.%$$$$$$$$$$$$$$$$$$%$..$%$$$$$$$$$$$$$$$$$$%.$.&=*&.++",
"++.&*=&.$.%%%$$$$$$$$$$$$$$$$%$..$%$$$$$$$$$$$$$$$$%%%.$.&=*&.++",
"++.&*=&.$.%%%%%$$$$$$$$$$$$$$%$..$%$$$$$$$$$$$$$$%%%%%.$.&=*&.++",
"++.&*=&.$.%%%%%%%$$$$$$$$$$$$%$..$%$$$$$$$$$$$$%%%%%%%.$.&=*&.++",
"++.&*=&.$.%%%%%%%%%$$$$$$$$$$$$..$$$$$$$$$$$$%%%%%%%%%.$.&=*&.++",
"++.&*=&.$.%%%%%%%%%%$$$$$$$$$$$..$$$$$$$$$$$%%%%%%%%%%.$.&=*&.++",
"++.&*=&.$...................$$$..$$$...................$.&=*&.++",
"++.....$$$$$$$$$$$$$$$$$$$$$$$$..$$$$$$$$$$$$$$$$$$$$$$$$.....++",
"++.@#@.$$....................$$..$$....................$$.@#@.++",
"++.@#@.$$.>>>>>>>>>>>>>>>>>>.$$..$$.>>>>>>>>>>>>>>>>>>.$$.@#@.++",
"++.@@@.$$.,,,,,,,,,,,,,,,,,,.$$..$$.,,,,,,,,,,,,,,,,,,.$$.@@@.++",
"+.@@#@@.$$..................$$$..$$$..................$$.@@#@@.+",
"+.@###@.$$$$$$$$$$$$$$$$$$$$$$$..$$$$$$$$$$$$$$$$$$$$$$$.@###@.+",
" .............................................................. "};
