/* XPM */
static char * door2_xpm[] = {
"64 64 15 1",
" 	c #28316A",
".	c #121212",
"+	c #6A74B2",
"@	c #3D3A40",
"#	c #68646D",
"$	c #FF1824",
"%	c #968AA4",
"&	c #45305B",
"*	c #624480",
"=	c #735492",
"-	c #3F3664",
";	c #D1D1D1",
">	c #45B653",
",	c #331D49",
"'	c #462864",
"     ......................................................     ",
" +++.@@@@@.@@@@@@@@@@@@@@@@@@@@..@@@@@@@@@@@@@@@@@@@@.@@@@@.++++",
" ++.@@@###.###################.$$.###################.###@@@.+++",
" ++.@@####.###################.$$.###################.####@@.+++",
" ++.@###%%.%%%%%%%%%%%%%%%%%%%%..%%%%%%%%%%%%%%%%%%%%.%%###@.+++",
" ++.@##%................................................%##@.+++",
" ++.@#%.&&&&&&&&&&&&&&&&&&&&&&&&&&&&&&&&&&&&&&&&&&&&&&&&.%#@.+++",
" ++.@#%.&&&*******************************************=..%#@.+++",
" ++.@#%.&&*******************************************=.-.%#@.+++",
" ++.@#%.&*******************************************=.-..%#@.+++",
" ++.@#%.******............*************************=.-.&.%#@.++ ",
" ++.@#%.*****.;;;;;;;;;;;;.***********************=.-.&*.%#@.++ ",
" ++.@#%.*****.;..........;.**********************=.-.&**.%#@.++ ",
" ++.@#%.*****.;.&&&..&&&.;.*********************=.-.&***.%#@.++ ",
" ++.@#%.****&.;.&&.>>.&&.;.&*******************=.-.&****.%#@.++ ",
" ++.@#%.****&.;.&..>>..&.;.&******************=.-.&*****.%#@.++ ",
" ++.@#%.****&.;..>>>>>>..;.&*****************=.-.&******.%#@.++ ",
" ++.@#%.****&.;.&..>>..&.;.&****************=.-.&*******.%#@.++ ",
" ++.@#%.****&.;.&&.>>.&&.;.&***************=.-.&********.%#@.++ ",
" ++.@#%.****&.;.&&&..&&&.;.&**************=.-.&*********.%#@.++ ",
" ++.@#%.****&.;;........;;.&*************=.-.&**********.%#@.++ ",
" ++.@#%.****&&.;;;;;;;;;;.&&************=.-.&***********.%#@.++ ",
" ++.@#%.*****&&..........&&************=.-.&************.%#@.++ ",
" ++.....******&&&&&&&&&&&&************=.-.&*************.....++ ",
" +++.#.&*****************************=.-.&***************.#.+++ ",
" +++.#.&****************************=.-.&****************.#.++++",
" +++.#.&***************************=.-.&*****************.#.++++",
" +++.#.&**************************=.-.&******************.#.++++",
"++++.#.&*************************=.-.&*******************.#.++++",
"++++.#.&************************=.-.&********************.#.++++",
"++++.#.&***********************=.-.&*********************.#.++++",
"++++.#.&***********************=.-.&*********************.#.++++",
"++++.#.&***********************=.-.&*********************.#.++++",
"+++.....***********************=.-.&********************.....+++",
"++.@##@.========================.-.&********************.@##@.++",
"++.@..@..........................-.&********************.@..@.++",
"++......--------------------------.&********************......++",
"++.@..@..........................-.&********************.@..@.++",
"++.@##@.&&&&&&&&&&&&&&&&&&&&&&&=.-.&********************.@##@.++",
"++..##@.*.********************.=.-.&********************.@##..++",
"++.,.#@.***********************=.-.&********************.@#.,.++",
"++.',.@.***********************=.-.&********************.@.,'.++",
"++.,',..***********************=.-.&**.................*..,',.++",
"++..,',.***********************=.-.&*.****&&&&&&&&&****..,',..++",
"++.,.,'.***********************=.-.&*.*****************..',.,.++",
"++.',.,.***********************=.-.&*.&&&&&&&&&&&&&&&&&..,.,'.++",
"++.,',..***********************=.-.&**.................*..,',.++",
"++..,',.***********************=.-.&*****.;;;;;;;;;.****.,',..++",
"++.,.,'.***********************=.-.&**.................*.',.,.++",
"++.',.,.***********************=.-.&*.****&&&&&&&&&****..,.,'.++",
"++.'',..***********************=.-.&*.*****************...,''.++",
"++.,'',.***********************=.-.&*.&&&&&&&&&&&&&&&&&..,'',.++",
"++..,''.***********************=.-.&**.................*.'',..++",
"++.@.,'.*.********************.=.-.&********************.',.@.++",
"++.@#.,.========================.-.&&&&&&&&&&&&&&&&&&&&&.,.#@.++",
"++.@##....................................................##@.++",
"++.@##@.;;.;;;;;.;;;;;.;;;;;.;;;;;;.;;;;;.;;;;;.;;;;;.;;.@##@.++",
"++.@##@..................................................@##@.++",
"++.@##@.&&&&&&&&&&&&&&&&&&&&&&&&&&&&&&&&&&&&&&&&&&&&&&&&.@##@.++",
"++.@##@.&**********************************************&.@##@.++",
"++.@##@..&********************************************&..@##@.++",
"+.@#%%#@..&******************************************&..@#%%#@.+",
".@#%%%%#@..&&&&&&&&&&&&&&&&&&&&&&&&&&&&&&&&&&&&&&&&&&..@#%%%%#@.",
"................................................................"};
