/* XPM */
static char *ee5a5917a03040709ae308d97e118583k3AqfH6IZ1UyTtlZ[] = {
/* columns rows colors chars-per-pixel */
"64 64 96 2 ",
"   c #5F8AC1",
".  c #608DC3",
"X  c #6190C6",
"o  c #6295CA",
"O  c #6895C9",
"+  c #6599CD",
"@  c #6C9CCD",
"#  c #709FCF",
"$  c #669ED3",
"%  c #699FD1",
"&  c #709FD0",
"*  c #67A2D6",
"=  c #6DA4D5",
"-  c #6DA8D7",
";  c #68A5D9",
":  c #6BAADD",
">  c #73A4D4",
",  c #75A9D6",
"<  c #78A9D7",
"1  c #74ADDA",
"2  c #79AEDA",
"3  c #6FB0DF",
"4  c #73B2DE",
"5  c #7CB3DD",
"6  c #7EB8DF",
"7  c #6BAEE1",
"8  c #6CB0E3",
"9  c #6EB7E9",
"0  c #6FBAEC",
"q  c #75B5E0",
"w  c #78B7E1",
"e  c #77B9E3",
"r  c #7BBCE3",
"t  c #71BCED",
"y  c #71BEF0",
"u  c #7EC1E6",
"i  c #7EC5EB",
"p  c #72C1F2",
"a  c #79C7F3",
"s  c #7DCBF4",
"d  c #80B3DE",
"f  c #82B6E1",
"g  c #84BBE3",
"h  c #89BEE6",
"j  c #83C4E6",
"k  c #89C2E7",
"l  c #81C6E9",
"z  c #8CC4EA",
"x  c #86CAEA",
"c  c #8ACDEB",
"v  c #90C7ED",
"b  c #91CCED",
"n  c #8CD1EC",
"m  c #8CD2ED",
"M  c #8FD6EE",
"N  c #94D0EF",
"B  c #91D6EF",
"V  c #91D8EF",
"C  c #82CEF4",
"Z  c #82CFF5",
"A  c #82D0F5",
"S  c #84D0F4",
"D  c #85D2F5",
"F  c #8ED7F2",
"G  c #8ED7F3",
"H  c #88D4F6",
"J  c #8FDBF7",
"K  c #95D2F1",
"L  c #94D7F0",
"P  c #99D7F3",
"I  c #92DAF0",
"U  c #94DCF2",
"Y  c #95DEF2",
"T  c #96DFF3",
"R  c #91DBF5",
"E  c #9ADCF5",
"W  c #90DCF8",
"Q  c #91DCF8",
"!  c #92DDF8",
"~  c #94DFF8",
"^  c #97E0F3",
"/  c #99E1F3",
"(  c #98E3F7",
")  c #9BE5F5",
"_  c #9CE6F5",
"`  c #9EE9F7",
"'  c #95E0F8",
"]  c #98E3F9",
"[  c #9BE6FA",
"{  c #9DE7FA",
"}  c #9EE8FA",
"|  c #A1EBFB",
" . c #A3EDFB",
".. c #A5EEFB",
"X. c #A8F0FC",
"o. c white",
/* pixels */
"p 0 0 * * * 0 R J H p p p p D H ! J s s 4 ; ; ; ; ; w ; q e y y p p p p p w c ( ) ) M M u u i G J m Y Y r x q 8 * - 5 o o o o X ",
"p 0 * * * * * ( { ~ H p p p D J } J s 4 ; ; ; ; : w w 1 u y y p p p p A c / ( m m w r r r m G G c ( I r 7 r 7 o o 1 j , o o . . ",
"p * * $ $ $ * w { { ' p p p J | o.Z 4 ; ; ; ; ; 4 j w 1 D y p p p A w / o./ c c w w ; m m m G ^ / r r q q r o o o > x z . . . . ",
"p * $ $ $ $ $ w D { } H p Z | o.o.w * * * ; ; ; w m w a D p A A A c / o.c c w w ; ; c m m J m V r : x : % > o o o o , h     . . ",
"p $ $ $ $ $ $ w D D { [ ! J o.o.J 4 * * * * ; w x m a D p A A I o.o.o.c c ; ; ; ; m m m | M M : : x w > 1 > o o . . , k       . ",
"p $ $ $ $ $ $ $ D D ' ] '  .o.! 4 * * * * * * w m s p J Z { / / o.c c w ; ; ; w m m m | ' ; ; ; : x o = + -   X < . , k <       ",
"p $ $ $ $ $ $ $ p Z Z [ ' o.! w * * * * * * * A ' Z J { I I c c c ; ; ; ; ; w m m ~ | M ; ; ; ; X 2 o > O @   @ 2   , k ,       ",
"s 1 4 4 $ $ $ $ p a a H ..o.x w * * * * * * * J ' H M ( c c c x w : ; ; r m m ' ' } Y e ; ; ; X X 1 o @ @     @ 5     < k <     ",
"' j j j 4 $ $ $ p p A ! o.x w * * * * * * w w } .._ ( c c c c r w : ; ; m m ' | [ B x m j : X X X > . @ @     @ d       , k < $ ",
"A 1 4 4 j r - * p Z A ! o.x * * * * * * w w ! | c m c u r j u r ; ; r m o.' | ] : w x V j j >     @ . @ @ .   @ d   .   , k m $ ",
"D w * 1 1 - ; ; s Z Z o.o.w * * * * w w w [ / c c j ; r r m u ; ; m m o.| | ] ; ; w x z N K h d , @ . X O     @ 5   . $ $ w x r ",
"p u 1 * ; ; ; e Z Z ..o.c ; * * w w x x | / c x ; 4 ; r m m ; ; r ' o.| | D ; ; ; ; X v z z v z z g 2   @     @ 2 $ $ $ $ $ 1 1 ",
"p u e * * * : r Z ! o.o.; ; ; w w w x | / c u u ; e ; r m ; ; r ' o.o.] p ; ; ; r ,   > g z h 5 z z g g X X . * - $ $ ; ; ; p p ",
"p x e e : : r i Z ..o.m 7 w w w x Y | c ; ; : : r ; w r m r D ' o.o.' p ; ; ; $ , X <   > d v h 5 > z z g g r $ ; ; ; ; p p p D ",
"p x t w : e i G ! o.G 9 7 r w / / / c : : : : w j 4 w w l ' ' o.| ' p ; ; ; X   , . < >   > z z h d > g Y L I B x r D s p o.o.{ ",
"p t x i 9 i i R ....H i i m m ) c u : : 3 : l u r 4 q q ' ' o.| ' p ; ; ; X     , .   @     d z d h x 6 r r x m c J ! o.o. .....",
"p t Z i i i Z R ..p Z ! G _ _ ( u : 4 4 q j w r : : p ! ..| o.] a ; ; ;         , > .   > .   > z Y j 4 r r r D o.o.o.....' ' ' ",
"p p Z H Z Z R ! ..Z ! | | | c : : q : q q w : r : D D  .| o.' a m < X             > > 2 O .   6 x Y x j ; ; D o.{  .' ' ' ' i 8 ",
"p p A Z Z ! ....! Z o.o.! r : q 8 8 q q w : r : D ' }  .o.' p ; g k g             2 g 5 O * $ $ r r Y j D o.o. . .' ' ' p 7 7 7 ",
"p s Z D ! ....! ! ! } o.o.u 4 w : : : : q r p p D } } o.' p p .   d v z z ,   X @ @ 5 1 $ $ ; ; ; w ! o.o... .' ' ' D : : : 7 7 ",
"p A Z ! ! ..! | | | ( x I o.x : : : : 3 j D p ! } } o.p p p .     > k 5 2 h k < 2 f + $ ; ; ; ; D o.o.....[ [ ' ' p : : : : : 7 ",
"p Z A ! ..! ! | Z : : l ^ ( o.o.: : : 4 A p D } ' o.' p ; . .     f f &   , , k h b m - ; ; D ~ o. ...{ [ J J p p : : : : : : : ",
"Z A ! ! ..| | ! r : : l l M ) o.u : 3 s Z ] } } o.' p ; ; . .   g f >           1 w B m r H o.o. .' ' D s s w ; ; ; : : : : : : ",
"A ! ......| ! u u q : : : M M ) o.o.p s D ] } ' o.p ; * * . . g g >         + $ ; ; w w ' o.o. .~ H p p p ; ; ; ; ; ; : : : q c ",
"A ! ..| | ! x l u 8 : : : l M ( ( o.o.p } } ] o.p p * * $ $ < g <         + ; ; w w c o.o. .' ' p H Z ; ; ; ; ; ; ; ; ; : M M e ",
"! ....| Z p M l : : : : : : r ! | } J o.} [ o.D p * * $ $ 4 c g < . $ $ $ ; w w w  .o.o.' ' D p p ! w ; ; ; ; ; ; ; ; V I V Z p ",
"....! Z p l G l : : : : : : p a a [ } [ { o.D p ; * * $ w B c w $ $ $ * ; w w V { o.o.' p p p ; ; c r ; ; ; ; ; ; r V V u A p p ",
" .! Z Z : I I : : q q : : p p p p D D } } o.p ; ; * * r x c w $ $ $ * w w w ~ ..' o.H p p p ; ; ; m m r ; ; r r r V u u p p p p ",
"A A Z : : I l : : r q : p p p p D ] } } o.p ; ; ; * r 6 c w w $ $ w w / /  . ...! o.H ; ; ; ; ; ; r m r ; r r M M u D p p p p J ",
"A Z 7 : l I l : : c m p p p p p ] ] } o.J ; ; ; ; r r c w 6 $ $ w w c  .' ~ ~ A A o.; ; ; ; ; ; ; ; m j e m M r p p p p p p H H ",
"Z 7 7 : l I l : : r ~ p p p p ] ] } o.p ; ; ; ; u u 1 x 4 * w w w I  . .~ p p w w o.; ; ; ; ; ; ; ; m j x c p p p p p p p p D Y ",
"8 7 7 7 l I : : : Z ' p p p p ] } } o.p ; ; ; u u ; x j * w c c (  .~ H p p ; w r o.w ; ; ; ; ; ; ; m m j p p p p p p p p x Y _ ",
"8 7 7 7 I l : : p Z Z ' p p D ] } o.p ; ; ; u u ; r j u w c /  .~ ~ H p ; ; ; w x o.w ; ; ; ; ; ; ; j } p p p p p p p p x Y ` Y ",
"8 8 7 7 I l 7 p p p Z ' p D ] o.o.D ; ; ; r r ; ; w : w / /  .! p p p * * * ; w x o.x ; ; ; ; ; ; p D ' p p p p p p p 7 Y Y Y Y ",
"t 8 8 7 I l p p p p Z ! D ] | o.] ; ; ; w r ; ; ; r w ^ / ! ! p : * * * * * * ; w o.x w ; ; ; p p p D ' p p p p p p x l Y Y Y Y ",
"t t 8 8 I D p p p p p ' } | o.] ; ; ; e ; ; ; ; c c c ^ ! ! p * w * * * * * * * w Y o.c ; p p p p p A ' p p p p p 7 l Y Y B B ; ",
"p t t t ] D p p p p p ] ..o.D p ; ; 4 4 : ; w c Y Y | ! A 4 * * w - - * * * * - 4 w o.! p p p p p p A ' p p p p p l Y ` B B * ; ",
"p p p p ' A p p p p D ] o.[ D ; ; ; ; ; ; w x Y c ' D p ; w * * w 4 ; ; $ $ 4 x w D o.! p p p p p p s ! p p p p u j _ M o.w * * ",
"p p p Z ' Z p p p D D ] o.D ; ; ; ; ; w w Y Y Y H H p ; ; w * * w 4 - $ $ 1 j 1 Z D o.! D p p p p p s J p p p r u ) m o.* 4 x * ",
"p p p Z ~ p p p D D  .o. .; ; ; ; ; ; x Y Y x ! s H 4 ; ; w ; * j j - $ + j G i 8 D | o.H D H J J p a J p p r m ) ) c o.- 4 x x ",
"p p p s ! p p p D ..o.] ] ; ; ; ; w x Y Y x ! ; w x x w ; ; w ; j w $ + l I i 8 8 8 | o.{ [ } { J J ! [ p r r m ) o.o.* w 1 o g ",
"p p p a J p p D D ..o.J p ; ; ; w Y Y Y w A ; ; w j m w ; ; r ; c ; 9 i c B - * * 8 D o.[ D H ....J ! [ o.o.r / o.o.$ $ 6 % o 5 ",
"p p p a H p D D ..o.] p p p ; w Y Y x x A ; ; ; w x B x ; ; w w x p 7 r m Y w * * * D o.[ D H J J | X...) o.o.o.o.$ $ $ 1 o + < ",
"p p p a H p D ] ..o.J p p p ! Y Y x x p ; ; ; ; ; x V I w ; w A D p ; r m m w * * * w o.[ ~ H J J J !  . . . .o.o.o.o.o.o.< + X ",
"p p p p D D D ..o.J p p p J { } ! ! ; ; ; ; ; ; ; w c I w ; D A Z : r m r m w * * * w o.! D H J ! J ! M Y B B / L E E P o.o.o.b ",
"p p p p s D { o.o.p p A J { { ! J 4 ; ; ; ; ; ; ; w c Y w p p J e : m m w m w * * * w o.! ! p p s Z ; - c c c j j j N b P P P o.",
"p p p p H ' ..o.J p A J { { A w j r w ; ; ; ; ; ; ; c } } p p D q r m r * m w $ * * w { o.! p p Z D r ; w j ; j g g g g g g g g ",
"p p p D | ..o.] J A J { { A j 4 ; w x w ; ; ; ; ; t Z ! } ~ p D w r m ; $ m m w $ * * { o.! D p Z w r r 4 j j + + + 1 5 o o g g ",
"p p p D ..o.o.p A J { { D w j r : ; w c c ; ; ; 9 9 Z ! ~ | p s j B w $ - o z 1 $ $ * { o.! D p * w 4 r j : + 6 5 + > = 5 2 o o ",
"p p p D ..o.' J J { { H H ; c r w w w r c u ; 7 7 9 t Z ] | H 1 c B ; $ 2 o z 1 o $ $ } o.! ! * * * 4 4 ; r + + + 6 , o + 2 , < ",
"p p D ' o.o.J J [ [ A a ; ; c r ; w ; r r m G 7 7 9 t ! { ..{ w c x ; o 2 o 1 z X X $ D } o.c * * * 4 4 * ; 1 , + o o < > % o @ ",
"p D | ..o.' J [ [ A a 4 ; ; m r ; w ; ; x x i M 7 t p D ! } ..I w w o o 2 o 1 z X o $ * } o.c * * - w w r c c b c c c c c c g 5 ",
"p D | ' o.J [ [ A A 4 - - : m r ; r r ; x r i i J p p D | ..I ( w w < X 2 X 2 z o o $ * { o.c r w j m M B 5 5 6 g z 2 2 2 < > = ",
"p | ..' [ ] ] Z Z 1 4 - 4 4 m u ; ; r 7 x u r s a H ! [ ..| m / j o < o o 2 5 1 z $ $ * D { o.c * * * * * + o % , g < X X X X o ",
"D ..' [ | ' Z Z ; : ; : 4 ; c u ; ; l l x A p p p H ! }  .Y m M / o > > o 2 + 1 z $ $ * w { o.x * * * * + o o o , g < X X X X o ",
"' ..[ [ ' Z Z ; : ; : r ; ; c u 7 7 7 G p A p p p H H ..[ ; r M / o o > o 2 + 1 1 c $ * * { o.x * * * + + o o o X g g < X . X o ",
"} ' [ ' H p ; ; : ; : w ; ; c x 7 7 l D p A p p H H ..{ [ ; r M M b o > o 1 @ o 1 c $ * * D o.x w * * + + o o o X X g < X X X o ",
"[ ' { ! Z ; ; ; ; : w ; ; ; m x 7 7 H D p A p p H [ ..{ p ; r r x b 5 = o o 5 @ < x $ * * D / o.w * + + + o o o X X g > X X X o ",
"~ ~ D a p ; ; ; ; : w ; ; 8 m x 7 p H D p Z p H H  .{ { ; ; ; r k k k 5     < @ < 4 j * * D Y o.w * + + + o o o X X g > X X X o ",
"H H p p ; ; ; ; - w ; ; 7 7 x l p H p D Z p p H ] [ [ p ; ; ; r , k g h O     5 $ 1 j r * p x o.x + + + + + o o X X g > X X X o ",
"s p p p ; ; ; ; - w ; ; 8 8 D D p D p A s p H ' | [ J ; ; ; ; ; , > g g X     , - - - r * * w o.x + + o + + + o X X 5 @ X X X o ",
"p p p : ; ; ; ; w ; ; 8 8 a Z s D p p Z p D H { ] ] p ; ; ; ; ; 1 > g g d .   @ - $ = r * * w Y x - + + + + + + X X 5 + X X X o ",
"p p : : : ; ; ; 4 ; 8 8 p p a p D p p a D D ! ~ ~ H p ; ; ; ; o 1 > d d d       % $ % - * * w I j r + + + + + + X X < o X X X o ",
"p p : : : : ; ; 4 : 8 p p p p p A p p D H J J ! ! p p ; ; ; ; o 1 < > 5 # >   o $ $ + ; * * D m j r + + o o + + X X = X X X X + "
};
