/* XPM */
static char *dacb00a863bb415292c9cf450fe83f0ddBdRGiGWZUFbLtpy[] = {
/* columns rows colors chars-per-pixel */
"64 64 142 2 ",
"   c #3A2523",
".  c #3E2926",
"X  c #402B27",
"o  c #4A2E27",
"O  c #432D29",
"+  c #512E28",
"@  c #46312B",
"#  c #4B342D",
"$  c #4E382F",
"%  c #5D352B",
"&  c #5D382B",
"*  c #4F3730",
"=  c #4F3930",
"-  c #503730",
";  c #543C33",
":  c #583F35",
">  c #62332B",
",  c #6A362D",
"<  c #623D2D",
"1  c #6C3B2E",
"2  c #723B2F",
"3  c #763D30",
"4  c #7A3D31",
"5  c #5A4136",
"6  c #5D4339",
"7  c #6B432F",
"8  c #71412F",
"9  c #62473C",
"0  c #66493E",
"q  c #684B3F",
"w  c #744431",
"e  c #7B4431",
"r  c #754932",
"t  c #7D4933",
"y  c #795134",
"u  c #6C4E42",
"i  c #823E32",
"p  c #834333",
"a  c #8A4134",
"s  c #844D34",
"d  c #8A4C34",
"f  c #924636",
"g  c #944A37",
"h  c #984A37",
"j  c #9D4B38",
"k  c #855236",
"l  c #8B5135",
"z  c #8F5836",
"x  c #8F5838",
"c  c #935236",
"v  c #955538",
"b  c #9C5238",
"n  c #9E5C3B",
"m  c #A34D3A",
"M  c #A4533A",
"N  c #AB523B",
"B  c #A55A3B",
"V  c #AA5C3B",
"C  c #B2553D",
"Z  c #B45B3E",
"A  c #BA5A3F",
"S  c #8A6039",
"D  c #9C673D",
"F  c #9F703F",
"G  c #A5633D",
"H  c #AD633D",
"J  c #A56C3F",
"K  c #B4633E",
"L  c #BB643F",
"P  c #B1683F",
"I  c #BE5C40",
"U  c #AF6B40",
"Y  c #B56740",
"T  c #BE6440",
"R  c #B36B40",
"E  c #BC6B41",
"W  c #AC7843",
"Q  c #B47041",
"!  c #BA7342",
"~  c #BA7B44",
"^  c #C35E41",
"/  c #C36441",
"(  c #CB6243",
")  c #C56B42",
"_  c #C86D43",
"`  c #CA6D43",
"'  c #C96E43",
"]  c #CB6E44",
"[  c #CC6E44",
"{  c #D06444",
"}  c #D46B45",
"|  c #DA6946",
" . c #C37245",
".. c #CB7143",
"X. c #CD7143",
"o. c #CD7144",
"O. c #CF7445",
"+. c #CE7D48",
"@. c #D07245",
"#. c #D37646",
"$. c #D47546",
"%. c #D47746",
"&. c #D47647",
"*. c #D97347",
"=. c #D57946",
"-. c #D67947",
";. c #D87947",
":. c #D97C47",
">. c #D67748",
",. c #D97648",
"<. c #DC7548",
"1. c #D77A48",
"2. c #D87848",
"3. c #DB7949",
"4. c #DA7D48",
"5. c #DD7D4A",
"6. c #E27E4B",
"7. c #DD8247",
"8. c #DB8048",
"9. c #DC8249",
"0. c #DE8349",
"q. c #E1814B",
"w. c #E18649",
"e. c #E3854B",
"r. c #E1864B",
"t. c #E2854C",
"y. c #E9864D",
"u. c #E48A4C",
"i. c #E78D4D",
"p. c #E78E4D",
"a. c #E98D4D",
"s. c #EC944E",
"d. c #F19A4F",
"f. c #ED9550",
"g. c #EF9851",
"h. c #F29C53",
"j. c #EBAC56",
"k. c #F5A354",
"l. c #F9AB56",
"z. c #FAAE58",
"x. c #FBB259",
"c. c #FEBB5B",
/* pixels */
"a j j N C / ] #.-.c & p.w.&.@.q.5.w.t.t.G n H @.N h h A C g 1 b 3.5.H & ' #.;.5.H t k 0.&.^ a a h V H ' O.X.8.0.5.3.( @.[ ^ / m ",
"a j j m m V L L L -.& < < ^ g ^ C o.o.#.#...#.@.3.&.o.A A C C [ 3.5.5.4.-.&.5.q.&.4.x k &.^ N = = . a m C N &.0.Y t e B H ,.( ^ ",
"a f f a a g M M L L 1.G 7 v f f a a a a a a j h ' o.H C m a a g g a a a m m j N ^ ^ w.k &.@.C = O . a m m a a m m h h B k H 3.^ ",
"f = = = = = = = = M 1.p.r w.m = = = = = = = . . . / e I = = = = = = O O O . . a a N / K ' o.C @ O . f T L = 5 5 5 5 5 @ @ H o.A ",
"m = = ; 6 6 6 = = = = o.E 0.Z = = = = = O . . . . M K / = = = = # @ O O . . . . a a O O O a a a j j h L K = 5 5 5 5 O X X V ..^ ",
"m = ; 6 0 0 0 6 = = @ a B ;.T O O O O O X . . . . h T / = = = = # @ O O . . . . a = O O O a a a j j h V V = 5 - @ @ O . . b ' ( ",
"m = 6 q q q 0 0 = = O O c ' ' O O O O O X . . . a j A / N j h a a @ @ @ . . . . O = O O O a 6 - - - 6 = = M a - O O . . . i b A ",
"m = 9 q q q q 0 = = O X 2 ) ) O O O O O X X m h m C C A N A A N m m m m m m j j = O O O O = 6 5 5 5 6 = O O a O X . . . . h m / ",
"m = 9 q q q q 0 = = O . . a m m a @ O O X X p a f a C A m = = = = $ @ @ @ Z T ) @ O O O O = 6 6 6 6 @ O O O a   X . . . X N j { ",
"j = 5 9 q q q = = = O       j j a a a Z Z Z m j = = = = = = = = = $ @ @ O O / ) @ O O O a = = 6 6 6 O O O O O a a a h m m N f { ",
"j = = 5 5 5 = = = = O       K K K T T ; 5 0 0 u u 6 6 6 6 ; = = = = O O O O K L @ O O a a = = = X X X X X . .   a j j m m m m I ",
"j j j @ @ @ @ @ = O         K ) ) T ; 0 0 0 u u u u 6 6 6 6 ; = = = O O O O K K V B b L N X X X X X X X . . . . a j j = O O a A ",
"m m m @ @ @ O O O           K ..m a 0 0 u u u u u u 6 6 6 6 ; = = = O O O O j j B B b ..' X X X X X . . . . . . a a = = O O a I ",
"5.3.} @ @ @ O O O           K ..m a 0 u u u u u u u 6 6 6 6 ; = = = O O O O N N = = = ..' ) X X X . . . . . . a a = = O O O a ( ",
"t 3.} m = @ O             . ..j m = u u u u u u u 9 6 6 6 ; = = O O O O O O N N 5 5 5 5 5 T j f f a a a a a a 5 5 5 = X X X a ^ ",
"t k U P N f h           . . w.C = 9 u u u u u u 9 # O O O O O       . O O O h 5 5 5 5 : # N N / ( ( ( ( ^ A m 5 5 5 @ X X a a ^ ",
"&.Q Q O./ j j j         . -.) m 6 9 9 u u u 9 - - O O O O           . O O O f 5 5 5 5 O O O j / ( ( ( *.} / m 5 5 5 O X X a a ^ ",
"^ 3.K ' I C j m m a a B w.-.C a 6 9 9 9 9 9 @ @ @                   . O O = m 5 5 5 O . . . X a a C { 3.3.&.h 5 5 O O X X a N A ",
"^ 3.Y A A C j m m m m O.-.#.f = 6 9 9 9 9 9 @ O                     X O O a m - O O X . . . . 6 m m m [ / Z b 5 O O O X X N N C ",
"3.5.E ) ) ' V Z L T T ' ' N a = ; 6 9 # # O                         X j m N N O X X .       . 6 m m 6 ; = m N O O O X X X N ' 8.",
"y.G i 0 0 0 9 9 Z Z V K V a a O O O O O O                     X X X a N ) b 1 O X X .       O 6 m m 6 ; . a N X X X X X O N #.z ",
"y.B a 0 0 0 0 9 = f f V M a a O O O O O                 X X X X X a h Z ' ) ) / . X . . . . O a j 6 6 X . a N N f a a a a m s z ",
"y.G a 0 0 0 0 9 O O O O # a a O O O O O             X X X X X X b b h h Z ) ) / p a a a a a a a f 6 5 . . a h j f a a a a ' l a.",
"y.H a 0 0 0 0 O       X O a a N O O O O         O X X 3.4.p.p.s.q.V h a a a Z Z / ( I 5 # # N N N ; O . . a m { k.l.l.k.k.k.g.p.",
"H E a 0 0 0 = O         X a a A ^ C C C C C C N A A A y.h.s.! g.p.N 5 5 5 @ @ @ / <.b 5 O X X N N C C a N N I } k.l.l.k.D ~ s.#.",
"q.3.a = = O O           . a a I ^ C C C C C C ( ^ ^ A g.d.s.t p.p.5 5 5 @ O O O j >.t 5 O X X a C C C a N N A / / #.T c d 0.:.' ",
"3.} a O O .           . . a a A A j j j a a m ^ ^ ^ a p.s.5.r <.5 5 5 @ @ O O O V 4.H 5 O X X a C C N a m N N m m Z p 2 f O.O.L ",
"&.( a O O .         . . . a h = = . . . N ( ( } = O O @.@.E o 5.5 5 5 @ @ X X O t.u.&.5 O X X a C C N 5 5 5 5 5 = O O X . :.p.:.",
"3.3.a O O .         . . . a h = = . . . N { { { = O O ^ ^ e 1 - - 5 @ @ O X X O w.w.d ; X X X C A C m 5 5 5 : : = X X . . w.p.) ",
"3.' B ' C f f m m m f f f a f = # . . . a { { ( = O O f N % ' - : @ @ O O X X a ;.;.d ^ I A N ^ I p a 5 5 5 5 O X X X . . &.w.T ",
"1 t / ' -./ I | | | | { A a a a a a a a a A ^ ^ a a a m A &.&.@ O O O O O X a a T ' ) ^ I N h A a C % ; O O O X X X       ] [ Z ",
"l w.g.w.0.o.C | | | | = = = = = # a a O = = = = = = O O O ) ' O O O O O O O a = = = = = # # # = = C C C X X X X X X       A g 1 ",
"' -.-.w.4.A N N N N h = = = O O O a # = = = = = = = O O O V ' ' a a a a a a = = = = = 6 6 6 5 - = = C #.c X X X X         C a m ",
"X.N 4 a 9 9 9 = = j a = = O X X X a = = = = = = = O O O O a ) ) N a a a = 5 5 0 0 0 9 9 9 6 6 5 - = j -.s k V a a j j m m N j m ",
"o.a a 9 9 9 9 = = N N = = O X X X a = = = = = = = O O O O a Z Z N N a = 5 u u u u 0 0 9 9 9 6 5 - = a -.-.X.:.-.#.C C C m a a a ",
"O.h 9 9 9 9 9 # # N N ^ O X X X X O = = = = = = @ O O O O a a w.w.Z a 5 u u u u u u 0 9 9 9 6 5 5 = = = = w.:.d.s.w.C . = = a a ",
"#.h 9 9 9 9 @ O O j N w.O X X X X O = = = = = = @ O O O O a a u.u.h a 5 u u u u u u 0 9 9 9 5 5 5 = = = = = :.d.G :.a = = = X a ",
"T a 6 9 9 9 O O O m w.z.h.a a a a = # # # = @ @ @ O O O = a ^ u.u.a a 5 u u u u u u 9 9 9 5 5 5 5 = = = = = a w.! / j = = . . a ",
"' a = = = O X X X 7.w.x.k.| C a a a @ @ @ @ @ @ @ @ @ = = ^ ^ w.5 5 5 5 u u u u u 5 5 5 5 5 5 5 = = = = = = a b ' I A = = . . a ",
"&.a = = O O X X X 7.p.z.z.k.h.h.{ ( a @ @ @ @ @ @ @ @ = C 3.3.4.5 5 5 5 5 u u 0 = = = = = = = = = = = = = = O O O I A = . . . a ",
"4.a = O O O X X X p.p.s.z.z.h.h.h.h.-.@ @ @ @ @ @ = = = o.3.' = 5 5 5 5 5 5 5 = = = = = = = = = = = = = = O O O O a Z . . . . a ",
"w.b O O O O X X X w.w.w.p.u.,.h.g.g.g.p.H a a a a ^ ^ { 3.3.N = = 5 5 5 5 5 = = = = O O O O O O = = = = = O O O O ( { <./ a a a ",
"u.' a O O X X X X N #.K @.@.f q.s.g.f.p.H H b a a ^ { }  .y.N = = = = = = = = O O O O O O O O O O = = = O O O O O ( | <.' N N a ",
"g.w.T O O X . . . C 4.4.g 6 6 6 5 = @ @ @ -.:.) m ^ { 6.k y.h = = = = = = = = O O O O O O O O O O O O O O . . . @ t.t.x.x.5.T N ",
"E a.w.a O X . . . 5.5.4.N 6 6 6 5 = @ @ @ -.:.= = @ @ 6.y.| h = = = = = = O O O O                 O O O O     .   p.R S c.y.' N ",
"< y.y.( a a a C ^ 5.5.&.j 6 6 @ @ O O O O B a = = @ X ..q.} h = = = = = O O O                     O O O O         p.p.j.c.y.( N ",
"3 y.y.,.p h a C ^ 5.o.L j 6 6 @ O O O O O B a = O X X V Y 4.) = = O O O O O O                       O O         . p.R x.c.y.&.N ",
"n p.g.+.8 h a = = = B ' N = = O O O O O O V f = O X X a l ' ) = = O O O O O O                                     p.< W c.k.&.N ",
"w y.p.0.#.C a = @ @ B -.' = = O O O O O @ A N = O X a a N N ) = O O O O O O                                        .k y F k.I m ",
"t &.( ( I C a = O O b #.' = # O O O O O A ( v ) T T A T ' h L ' O O O O O O                                       B w f.H | A m ",
"e 4 C N a a a a a a g K V h # O O O O = A ( 8 ) T T A T ' a N C N N O O O .         .                           O ( g | | | A m ",
"} h ^ 9 9 9 ; # O a a <.3.<.N O O O O <.h.J r w.9 9 9 9 9 @ % ) ) ) O = O         X X                       X O O ( ( a N A m m ",
"' M C 9 9 9 9 # # @ a 3.6.<.*.O O O = g.h.h.h.6.9 9 9 9 9 9 ; = V e M X.O       X X X X                   O O O O a 3 i a a a N ",
"' a a 9 9 9 9 = = @ @ B 3.&.<./ N a a g.7 ~ h 9 9 9 9 9 9 9 ; = # N N T ) B f a a X O X X X O O O O O O O O O O O a = = = a a N ",
"' a a 9 9 9 9 = O O O O B #.e d a a a w.k q.a = 9 9 9 9 9 ; = = # O O O ' ' ) K B M a X X X O O O O O O O O O O O a = = O O O C ",
"3.f a * * * 9 = O O O O O B V A N = = = # a a = = = = = = = = = # O O O   ' ) &.5.3.,.} ^ N N O O O O O O O N N a a = = O O O C ",
"5.f a * * # O O O O X X X B B ) C = = = @ 4 a = = = = = = = = = = O O O O m m I H  .p.y.V N N A / o.X.) / L Z ' B a = = O O O C ",
"3.a a X                   a B ) Z = = = = a a O O O O O O = = = = = O O O O a C #.& & v w / A I b o.o.) ) / Z ' B = O O O O O C ",
"3.a a .                     h Z N # @ @ @ a a O O O O O X X X X X X X X X O O O a j q.1.3./ A C 2 N C C C C N ' O O O O O O O N ",
"3.j a                       a N N @ O X . a a O O O O O X X X X X X X X X O O O N ^ C = = = = O O O O N C C N # O O X O O O O m ",
"w.} I . . . . . . . . . . . a / M @ O X . a 4 O O O O O X X X X X X X X X O O O C C a O O O O O O O O m C h + # O O O O O O O m ",
"f.6.I . . . a a a a a a a a a ..n @ O X a a , O O O O O O O O O O O O O O O a N C C a O O O O O O O O ) C C 2 = # # # O O O a N ",
"n s e 4 I A a a a a a a a a a T v m a a a a > a a a a a a a a a a O O O O a a C C ^ ^ ^ ^ ^ ^ ^ g B V d p 4 j N N N N a a a a N ",
"0.0.3.5./ ( ( ( C ^ ( } | | o. .' ^ N N j C j { { } ^ ^ ^ ^ I A C C A A ' o.) a.s.d.s.p.p.w.3.' ^ ^ ' c b w e V T N N a a a a m "
};
