/* XPM */
static char *_66ced8ff1ec41acc593cc2d1b31420amRAW0h76zyEGg3si[] = {
/* columns rows colors chars-per-pixel */
"64 64 73 1 ",
"  c #292A33",
". c #3F404C",
"X c #40424E",
"o c #424451",
"O c #4D4F57",
"+ c #4C4D59",
"@ c #4D5257",
"# c #4D515A",
"$ c #505056",
"% c #52555B",
"& c #555A5F",
"* c #525364",
"= c #555A63",
"- c #5A5D67",
"; c #565769",
": c #5C5C6D",
"> c #5D5E70",
", c #605E6D",
"< c #5E636C",
"1 c #5F6270",
"2 c #62646D",
"3 c #68676C",
"4 c #66686F",
"5 c #6D6A6F",
"6 c #636473",
"7 c #656975",
"8 c #6C6B72",
"9 c #66677A",
"0 c #67697A",
"q c #696E7A",
"w c #6A6F7A",
"e c #6D6D78",
"r c #6A6C7C",
"t c #6B6F7C",
"y c #716F77",
"u c #716F79",
"i c #6A707A",
"p c #6C727C",
"a c #6D737D",
"s c #6F757E",
"d c #71737B",
"f c #72727B",
"g c #71717C",
"h c #75787E",
"j c #77797F",
"k c #6D6B81",
"l c #6F6F80",
"z c #6E6F83",
"x c #6A7280",
"c c #6F7283",
"v c #6F7480",
"b c #6F7085",
"n c #707180",
"m c #707681",
"M c #767681",
"N c #777781",
"B c #707384",
"V c #727584",
"C c #737882",
"Z c #727884",
"A c #757B86",
"S c #797B85",
"D c #727388",
"F c #737488",
"G c #747788",
"H c #74758A",
"J c #7A7D8B",
"K c #7C7E94",
"L c #7E8188",
"P c #7E8493",
"I c #84848F",
"U c #818592",
"Y c #828E99",
/* pixels */
"ccssa77776:::OOOx OO#760ttaaaaffff$$OOx  OOO::--22277387cVVVCCvv",
"ccmsa777776:::OOx OO#767ttaaaaffff$$Ox  OOO::--27776380BVVVCCCCv",
"Bcmms777776:<:OOOx O#67777ttagff8$$Ox  OOO:  --377788BBBVVCCCCCv",
"BBBmsww7777<<<<OOx OO6770707e8ee8$$x  OOO< xY 377788llBBVCCCCCCa",
"VVBmmii7777<<<<OOOx O6777770ee88$$Ox OOO<2 xx 77789blbVVVCCCCCss",
"VVBmmiiw777<<<<@OOx O66777777788$Ox OOO:222  777w9lbBBBVCCCCCsmm",
"VVVCmi-w777<22<<++x OO677776777OOx  ++22222,,77e9lBBBBBZCCCCmCCC",
"MMMCma<i777<2<<2@++x O66677666OOx  +OO22222,77wwlBBBBBZZCCCmCCCm",
"MMMjCa<i777<<<2<@++x O++6 66OO+x  O,,,2222767ttcDBBBBBZZCCCCCCCm",
"MMMMms<<777<%2<<<+++x O+ x OOOx  O222,,22776ttbBDBBB6ZZZCCCCCCVm",
"MMMMmss<777<&2222O++x ++O OOOx  O,22222277e00BVVDDBBwwVZCCCAAVmm",
"MMMMBsss--7<&2222<+++x+OOOOOx  OO22  2227wr0BDVVDDBVZwVVCCAAVVAC",
"MMMMlsss77<<2&22<<+++x OOOOOx OO12 xY 26wwwBVVVVDDBAZwwmmAAVVVAA",
"MMMMlsss777&<&&<<<+++x OOOOx OO112 xx 66wwVBFFVVDDAAZVwmZAVVFVAA",
"MMMcllss77722<&<<:++++xOOOx OO111>:  610wVHDDDDBDAAAvcmaZAVVFAAA",
"VVVllll77772222=::+ ++x xx OOO111>>66699VHHDDDDDDAAvcmZaZBVVFAAs",
"VVnllll9777<22<::: x ++x  OOO1666>66609lBHHFDDDAAAavvZZa6BVV*ACC",
"kllllll977<<2<:::++ +++x  OO1666666600lBDHAZAAAAaasmZZZV6BBVA:CC",
"kkllkkl977>>:::::+++++x  ++11166666009BDDAAAAAAAaaCAZZZZ66BVC:CC",
"kkkllkk666>>:::::++++x  ++16116667000BBDZZAAAAAasmCAZZZZZ6BlCC:C",
"kkklkk696:>:::::++++x  OO62  1166700lBBZZZAAAAaasm<<AZZZZtvVCC<C",
"kkklkl996::,,,::+++x  ++62 xY 667tcllBBVZZAAAaaasmCZ<wZZZc0vvmC<",
"kllll6696>,,,,,++++x ++222 xx 777sscaaVVVZAAaaaaivCCCwwtvcv0vmC<",
"lllt66696,,,,,++++x ++22222  777ssvaaaaVVVVaaaawiavZCCv07cv0vmmm",
"tt6679966,,,,++++x #12222277777assssaaacataaaawwiiasmmma77vvvvmm",
"666679666, ,,OOOx +124222277777assssaaaaataaawwwiiasssssaa7vvvvj",
"666666666 x OOOx +1127222227447iissaaggeffffeaeewaaassjjjggejjj4",
"66666666:, 2OOx O<11272222244447aasaaa333448783327777ssj74gee777",
"77777777222OOx  O<6  222222224472aaa2233233344732277777774336-67",
"7777777222OOx  OO< xY 222661666<66166622222333222627776672226662",
"648847222OOOx OOOO xx 6666111111666662,2222222222222222222222332",
"74442222OOOx OOOOOO  <<<OO+++++++OOOOOO++++++++OO+OOOOOOOOOOOOOO",
"2222222OOOx OOOOOOOOOOOOOOOO+OOOOOOO+OOO+++++++OOOOOOOOOOOOOOOOO",
"22 222OOOx                                                      ",
"2 x 2$OOx                                                       ",
"22 $$OOx OOOOOOOOOOOOOOOOOOO++OOOOOOOOOOO+++OOOOO    OOOO6666OO+",
"$$$$$Ox OOOOOOOOOOOOOOOOOO++++OOOOO+++OO+++++  OOx  +++66666661+",
"$$$$Ox OOOOOOOOOOOOOOOOOOOOO++OOOOOO++O+++++ xY Ox  ++66 666661 ",
"$$$Ox OOOO+###OOOOOOOOOOOOOO+++OOOOOOO++++++ xx Ox  ++3 x 3333 x",
"OOOOx OOOO#+++<:<<<<<<<<<<<<<<<<<:::::::::::+  OOx ++333 333333 ",
"OOOx OOO++++<<<<<<<<<<<<<<<<<<<<<<::::::::::::++Ox O$3333333yyyy",
"OOx +OO+++<<<<<<<<<<<<<<<<<<<<<<<<<<<:::::::::++Ox O$33333yffffy",
"Ox O++++<<<<<<<<<<<<<<<<<<<<7777<<<<<::::::::::+Ox O$3333fffffff",
"x OOO@++<<<<<<<<<<<<<<<<<777777777766::::::::::+Ox O$7733fffuuff",
" OOO@++<<<<<<<<<<<7777<7777777777776666::::::  OOx O$333ffffgttt",
"OOO#@+-<<<<<<<<<77777777777777777776666::::: aY Ox O6334fffggalt",
"OO@@+-<<<<<<#<7777666677iiii7777776688885:<: xa Ox O6666fjaagmBB",
"O@#++<<<<<<<@777667777issssiww777678888888<<:  O+x O6667faamMMBB",
"O#@-<<<<<<<6X66677999aaasssssi777988888588<<:::OOx O6667jggMmMBH",
"O#+-<<<<<:16X67777999aaassssstt098888885887<:::OOx O6667ggMMMSHH",
"O@-<<<<<:<666o977799laaasssscct99e888588888<<::OOx O666+agMMSSHJ",
"O<<<<<<<:6666o77779tlssmmUUUPct0eee88888888<<::OOx O66.7agMSSJJJ",
"O:<<<<<:<6677o+77ttlammUUUUUUKKfueee88888882<  ++x +..62ajMSSJJJ",
":::<<<::667770+rtttlvAUUUUUPUKKfuyye88888882 aY +x  6662ajSSJJJJ",
"::::::::7799997*rrlaZUUUUUUUUUUIfuyee7788882 xa +x O6662aMSSJJJJ",
":::::::6790999r*rllvPUUUUUUUUUIIfyyyw77888822  +Ox +6666aMSSJJJJ",
"::::::67799999rr;llPPUUUUUUUUIUIfuyyw77888822<:+Ox O6666aMSSJJJJ",
"::::::77799976rr;lKPUUUUUUUUUIUUfuftw0778822222OOx O6666aMSSJJJJ",
":::::67777997ttl;;KPUUUUUUUUUUUIffftw9007822222$Ox O6611aMSSJJJJ",
"::::667777779ttll9KPUUPUUUUUUUUIjftw00007822222$Ox O6611aMSSJJJJ",
"::::677777777trll99PPPPUUUUUUUIjffaw777777222  $Ox O6661aMSSJJJJ",
":::6777777777tlllK9KPPPPUUUUUIIjffa7777777:2 xY Ox O6666tMSJJJJJ",
":::6777777777tlllK9KPPPPPPPUULMffaw777777::2 aa Ox OO666wMSJJJJJ",
":::7777777777tllllKKPPPPPPPLMMjffa7777777::22  OOx OO6666nMJJJJJ"
};
