/* XPM */
static char *e8b72605f37149adf743c9d68b6529fbqr7KMtPCQPcl9JPF[] = {
/* columns rows colors chars-per-pixel */
"32 32 255 2 ",
"   c #090909",
".  c #0C0C0C",
"X  c gray5",
"o  c #0E0D0D",
"O  c #0E0E0E",
"+  c gray6",
"@  c #101010",
"#  c #111111",
"$  c gray7",
"%  c #131313",
"&  c gray8",
"*  c #151515",
"=  c #161616",
"-  c gray9",
";  c #181717",
":  c #181818",
">  c #191919",
",  c gray10",
"<  c #1B1B1B",
"1  c gray11",
"2  c #1D1D1C",
"3  c #1D1D1D",
"4  c #1E1D1D",
"5  c #1E1E1E",
"6  c #1F1F1E",
"7  c gray12",
"8  c #202020",
"9  c gray13",
"0  c #222222",
"q  c #232323",
"w  c #232424",
"e  c gray14",
"r  c #252424",
"t  c #252525",
"y  c #262525",
"u  c gray15",
"i  c #272727",
"p  c #282727",
"a  c #282828",
"s  c gray16",
"d  c #2A2A2A",
"f  c gray17",
"g  c #2B2C2B",
"h  c #2C2C2C",
"j  c #2D2C2C",
"k  c #2C2D2D",
"l  c #2D2D2D",
"z  c #2E2D2D",
"x  c gray18",
"c  c #2F2F2F",
"v  c #302F2F",
"b  c #30302F",
"n  c gray19",
"m  c #313131",
"M  c #323131",
"N  c #323232",
"B  c gray20",
"V  c #343333",
"C  c #343433",
"Z  c #343434",
"A  c #353535",
"S  c #363635",
"D  c gray21",
"F  c #373737",
"G  c #383837",
"H  c gray22",
"J  c #393838",
"K  c #383839",
"L  c #393939",
"P  c #3A3939",
"I  c #3B3A3A",
"U  c gray23",
"Y  c #3C3C3C",
"T  c #3D3C3C",
"R  c #3D3D3C",
"E  c gray24",
"W  c #3E3E3D",
"Q  c #3D3E3E",
"!  c #3E3E3E",
"~  c #3F3F3F",
"^  c #403F3F",
"/  c gray25",
"(  c #414141",
")  c #424241",
"_  c gray26",
"`  c #434242",
"'  c #434342",
"]  c #434343",
"[  c #444444",
"{  c #454444",
"}  c gray27",
"|  c #464545",
" . c #464645",
".. c #464646",
"X. c #474646",
"o. c gray28",
"O. c #484847",
"+. c #484848",
"@. c #494848",
"#. c #494949",
"$. c #4A4A49",
"%. c gray29",
"&. c #4B4B4A",
"*. c #4B4B4B",
"=. c #4C4B4B",
"-. c #4C4C4C",
";. c #4D4C4C",
":. c gray30",
">. c #4E4D4D",
",. c #4E4E4E",
"<. c #4F4E4E",
"1. c #4F4F4E",
"2. c gray31",
"3. c #504F4F",
"4. c #50504F",
"5. c #505050",
"6. c #515050",
"7. c #515151",
"8. c #525151",
"9. c gray32",
"0. c #535252",
"q. c #535353",
"w. c #545353",
"e. c #545453",
"r. c gray33",
"t. c #555454",
"y. c #555555",
"u. c #565555",
"i. c #565655",
"p. c #565656",
"a. c gray34",
"s. c #585757",
"d. c #585857",
"f. c #585858",
"g. c #595858",
"h. c #595958",
"j. c gray35",
"k. c #5A5959",
"l. c #5A5A5A",
"z. c #5B5A5A",
"x. c #5B5B5B",
"c. c #5C5B5B",
"v. c #5C5C5B",
"b. c gray36",
"n. c #5D5C5C",
"m. c #5D5D5C",
"M. c #5D5D5D",
"N. c #5E5D5D",
"B. c #5F5F5F",
"V. c #605F5F",
"C. c #60605F",
"Z. c #606060",
"A. c #616060",
"S. c #616160",
"D. c gray38",
"F. c #626160",
"G. c #626161",
"H. c #626261",
"J. c #626262",
"K. c #636262",
"L. c #636362",
"P. c gray39",
"I. c #646362",
"U. c #646363",
"Y. c #646463",
"T. c #656463",
"R. c #656464",
"E. c #656564",
"W. c #656565",
"Q. c #666565",
"!. c #666665",
"~. c #676665",
"^. c gray40",
"/. c #676666",
"(. c #676766",
"). c #676767",
"_. c #686767",
"`. c #686867",
"'. c #696867",
"]. c #686868",
"[. c #696868",
"{. c #696968",
"}. c DimGray",
"|. c #6A6969",
" X c #6A6A69",
".X c #6B6A6A",
"XX c #6B6B6A",
"oX c gray42",
"OX c #6C6B6A",
"+X c #6C6B6B",
"@X c #6C6C6B",
"#X c #6D6C6B",
"$X c #6C6C6C",
"%X c #6D6C6C",
"&X c #6D6D6C",
"*X c #6D6D6D",
"=X c #6E6D6C",
"-X c #6E6D6D",
";X c #6E6E6D",
":X c gray43",
">X c #6F6E6E",
",X c #6F6F6E",
"<X c #706F6F",
"1X c #70706F",
"2X c #71706F",
"3X c gray44",
"4X c #717070",
"5X c #717170",
"6X c #717171",
"7X c #727170",
"8X c #727171",
"9X c #727271",
"0X c #727272",
"qX c #737272",
"wX c #737372",
"eX c #747373",
"rX c #747473",
"tX c #747474",
"yX c #757474",
"uX c #757574",
"iX c gray46",
"pX c #767574",
"aX c #767575",
"sX c #767675",
"dX c #777676",
"fX c #777776",
"gX c #777777",
"hX c #787777",
"jX c #787877",
"kX c gray47",
"lX c #797878",
"zX c #797978",
"xX c #797979",
"cX c #7A7979",
"vX c #7A7A79",
"bX c gray48",
"nX c #7B7A7A",
"mX c #7B7B7A",
"MX c #7B7B7B",
"NX c #7C7B7B",
"BX c #7C7C7C",
"VX c #7D7C7C",
"CX c #7D7D7C",
"ZX c gray49",
"AX c #7E7D7D",
"SX c #7F7E7E",
"DX c #7F7F7E",
"FX c #808080",
"GX c #818080",
"HX c #828181",
"JX c #828281",
"KX c #848383",
"LX c #858484",
"PX c #888787",
"IX c #898888",
/* pixels */
",.=.y.,.} ,.y.H.H.|./.y.l.y.y.l.y.] *.H./.b.7.y.*.Y } *.*.=.,.*.",
"|.=XwX/.*./.=XOX/.=X1XwX=X1XwXwXwXe.Y =XyXwX=XwXeXwXlX=X7.l.|.|.",
"Y./.=Xy.Y /.|.|._./.=X|./.`.|.|.|.*.u H.|.=XOX=X=X/.H.O.*.,./.|.",
"=XY.=Xc.7.|.wX=X|.|.<X=X/./.`.`.|.,.x b.=XwX=X=X|.|./.Y N l.=X=X",
"yXwX1XH.l.eXwX<X=X#XyXrX=X/./.=X=Xl.7.,.#XwXyXyXyX=Xw.} Y ,.1XwX",
"N H H H } H } ] ] *.Y x u N Y H Y } l.< 5 H ,.7.} f O H 7.S x x ",
"5 < 8 Y 7.x 8 x x - - 5 f u 5 u f } } Y S u < - # O # ] *.S u w ",
"y.] y.yXlXBXlXlXFXyXwX=Xl.b.wXyXyXhXyXyXlXlXhX/.,.7.l./.lXhXwX|.",
"/.} H.hXwX=X=XwXwXeXeXyXs.,.OX=X=XwXwXwXwX=X=X|.7.H.U.V./.#X_.=X",
"e.N /.yXyXyXwXyXrXyXwX=X|.y.|.wXwXwXwXwXwX=X1X|.Y y.OX/._.=XOX<X",
"H f 7.lXyXyXyXyXlXhXrXeX/.s.=XlXyXeXyXeXwXwXwX|.,.7.|.=X|.|.wX=X",
"8 ,.v Y } } S x N S N f u Y x C G ,.l.H._.=X/.N Y N N H 3.4.} 8 ",
"} } S 5 - < - O < b S S *.H.,.H N 8 -   # - # f *.f < O # O # f ",
"<X=XyXyXwX/.7.} /.BXNXlXyXyXhXyXlXNXBX/.N H 7.b.wX=X/.s.l.w./.wX",
"yXlXjXjXlXlX*.f Y.wX<X=X=XOX=X|.=X<XwXyX*.7.b.wXwXOX|.=X#XwXyXyX",
"wXyXyXeXyXwX] ,./.OX|.#X=X<XwXwXwXeXwXyXl.y.wXyX=X=X=X=XrXrX<X=X",
"wXyXyXeXrX=X,.} |.wX|.=X|.<XeXeXrXyXrXb.H ,.1XwX|.=X|.OX1XwXwXOX",
"hXlXyXwX|.H.] *./.yXwXwXwX<XwXyXyXyX=X< Y ] =X<X<X|.`.|.|.OX1XyX",
"x f u 5 # # *.y.] H.b.y.l.H.V.b.e.*.N S H 8 8 p f u f b u 5 8 N ",
"} ,.*.4./.H.l.b.] 5 5 5 # O # # - u S l.7.y.H u x x S 8 8 - S H ",
"BXKXPXIXIXLX|./.|.BXlXhXwX/.S ] lXIXFXNXBXBXBXyX|.1XyX/.f *./.FX",
"<XwXlXlXBXFXb.] b.yX1X<X1X=X,.,.wX<X=X=XwX1XwX|._.OX=X=X] H y.=X",
"yXyXyXyXjXBXH.] H.yXwXwX=XOX,.] /.=X=X=XwX=X|./.C./.=X|.c.x 7.eX",
"yXhXyXhXlXBXb.*.b.yX1X#XOX|.H.] H |.1X=XwX1X|.H.=X=Xv.,.x ] l.jX",
"|.*.,.*.^ *.] y.l.eXH.7.,.Y.V.*.< # ; < p ] } u u u - # 8 } ] y.",
"# 8 # - ; 5 V S 5 5 < # # # b 7.] } H } x - - u x g 7.7.} y.N # ",
"wXFXBXlXyXBXBX|.*.7.|.1X=XH.|.=X`.yXyXjXlXl.,.*./.lXyXyXyXhXyXyX",
"wXwXyXyX<X=XwXLXl.Y |.|.wXwX=X/.|.1X|.|.rX|.,.l.=XOX=XwX=X=X=XwX",
"wX=XeXyXyXeX1XwX|.H 3.OXwXwX=X#X1X<X|.|.=X1X*.s.U.`.wX=X|.=XwXyX",
"yXyXyXhXyXwX<X=X/.,.l.=X=XyXeXwX=X=XOX|.=X/.Y d./.#XwX=XOX=X<XyX",
"=X=XwXyXyX=X/.C.*.l./.#X/./.|.|._.OX|.H./.7.7.,.H.|.=X<X<XwXwXwX",
"< - < 5 5 - O O 8 ] u - O @ # # # # - < # 8 b.f - # 5 f u 8 5 5 "
};
