/* XPM */
static char *_59eced461c44a06c93e24ca47794cdb68SwRbu1BAF3swAw[] = {
/* columns rows colors chars-per-pixel */
"256 36 6 1 ",
"  c None",
". c gray21",
"X c gray27",
"o c #5D5D5D",
"O c gray47",
"+ c #CEF2FF",
/* pixels */
"                                                                                                                                                                                                                ....................                            ",
"                                                                                                                                                                                                                ....................                            ",
"        ....................                                                                                                                                                                                  ..OOOOOOOOOOOOOOOOOOOO..              ......      ",
"        ....................                                                                                                                                                                                  ..OOOOOOOOOOOOOOOOOOOO..              ......      ",
"        ..OOOOOOOOOOOOOOOO..                                                                                                                                                                                ..OOoooooooooooooooooo..                ..OO..      ",
"        ..OOOOOOOOOOOOOOOO..                                                                                                                                                                                ..OOoooooooooooooooooo..                ..OO..      ",
"..........OOoooooooooooooo..................................................................................................................................................................................OOoooooooooooooooooo......................OOOO....  ",
"..........OOoooooooooooooo..................................................................................................................................................................................OOoooooooooooooooooo......................OOOO....  ",
"..OOOOOOOOoooooooooooooooooooooooooooooooooooooooooooooooooooooooooooooooooooooooooooooooooooooooooooooooooooooooooooooooooooooooooooooooooooooooooooooooooooooooooooooooooooooooooooooooooooooooooooooooooooooooooooooooooooooooooooooooooooooooooooooooooo..  ",
"..OOOOOOOOoooooooooooooooooooooooooooooooooooooooooooooooooooooooooooooooooooooooooooooooooooooooooooooooooooooooooooooooooooooooooooooooooooooooooooooooooooooooooooooooooooooooooooooooooooooooooooooooooooooooooooooooooooooooooooooooooooooooooooooooooo..  ",
"..oo++++oooo++++oo++++++++++++++oooo..........................................................................................................................................................................................................................  ",
"..oo++++oooo++++oo++++++++++++++oooo..........................................................................................................................................................................................................................  ",
"..oo++++oooo++++oo++++++++++++++oooo..                                                                                                                                                                                                                  ..      ",
"..oo++++oooo++++oo++++++++++++++oooo..                                                                                                                                                                                                                  ..      ",
"..oo++++oooo++++oo++++oooooo++++oooo..                                                                                                                                                                                                                    ..    ",
"..oo++++oooo++++oo++++oooooo++++oooo..                                                                                                                                                                                                                    ..    ",
"..oo++++++++++++oo++++oooooo++++oooo..                                                                                                                                                                                                                    ..    ",
"..oo++++++++++++oo++++oooooo++++oooo..                                                                                                                                                                                                                    ..    ",
"..oo++++++++++++oo++++++++++++++oooo..                                                                                                                                                                                                                    ..    ",
"..oo++++++++++++oo++++++++++++++oooo..                                                                                                                                                                                                                    ..    ",
"..oo++++oooo++++oo++++++++++++++oooo..                                                                                                                                                                                                                    ..    ",
"..oo++++oooo++++oo++++++++++++++oooo..                                                                                                                                                                                                                    ..    ",
"..oo++++oooo++++oo++++oooooooooooooo..                                                                                                                                                                                                                  ..      ",
"..oo++++oooo++++oo++++oooooooooooooo..                                                                                                                                                                                                                  ..      ",
"..oo++++oooo++++oo++++oooooooooooooo....................................................................................................................................................................................................................        ",
"..oo++++oooo++++oo++++oooooooooooooo....................................................................................................................................................................................................................        ",
"..ooooooooooooooooooooooooXXXXoooooooooooooooooooooooooooooooooooooooooooooooooooooooooooooooooooooooooooooooooooooooooooooooooooooooooooooooooooooooooooooooooooooooooooooooooooooooooooooooooooooooooooooooooooooooooooooooooooooooooooooooooooooooo..........",
"..ooooooooooooooooooooooooXXXXoooooooooooooooooooooooooooooooooooooooooooooooooooooooooooooooooooooooooooooooooooooooooooooooooooooooooooooooooooooooooooooooooooooooooooooooooooooooooooooooooooooooooooooooooooooooooooooooooooooooooooooooooooooooo..........",
"..........XXXXXXXXXXXXXXXX................................................ooooooooooooooooooooooooooooooooooooooooooooooooooooooooooooooooooooooooooooooooooooooooooooooooooooooooooooooooooooooooooooooooooooooooooooooooooooooooooooooooooooooooooooooXX....  ",
"..........XXXXXXXXXXXXXXXX................................................ooooooooooooooooooooooooooooooooooooooooooooooooooooooooooooooooooooooooooooooooooooooooooooooooooooooooooooooooooooooooooooooooooooooooooooooooooooooooooooooooooooooooooooooXX....  ",
"        ....................                                              ....................................................................................................................................................ooooooooooooooooooooooooXX..      ",
"        ....................                                              ....................................................................................................................................................ooooooooooooooooooooooooXX..      ",
"                                                                                                                                                                                                                              ..XXXXXXXXXXXXXXXXXXXXXX..        ",
"                                                                                                                                                                                                                              ..XXXXXXXXXXXXXXXXXXXXXX..        ",
"                                                                                                                                                                                                                                ......................          ",
"                                                                                                                                                                                                                                ......................          "
};
